<?xml version="1.0" encoding="UTF-8" standalone="no"?><svg xmlns="http://www.w3.org/2000/svg" xmlns:xlink="http://www.w3.org/1999/xlink" contentScriptType="application/ecmascript" contentStyleType="text/css" height="120px" preserveAspectRatio="none" style="width:199px;height:120px;background:#FFFFFF;" version="1.1" viewBox="0 0 199 120" width="199px" zoomAndPan="magnify"><defs><filter height="300%" id="f17x13q0f5mw5l" width="300%" x="-1" y="-1"><feGaussianBlur result="blurOut" stdDeviation="2.0"/><feColorMatrix in="blurOut" result="blurOut2" type="matrix" values="0 0 0 0 0 0 0 0 0 0 0 0 0 0 0 0 0 0 .4 0"/><feOffset dx="4.0" dy="4.0" in="blurOut2" result="blurOut3"/><feBlend in="SourceGraphic" in2="blurOut3" mode="normal"/></filter></defs><g><!--MD5=[2f4e497837a991172d40b04b7a7d0ca2]
class Singleton--><rect codeLine="1" fill="#FEFECE" filter="url(#f17x13q0f5mw5l)" height="99.2188" id="Singleton" style="stroke:#A80036;stroke-width:1.5;" width="178" x="7" y="7"/><ellipse cx="63.75" cy="23" fill="#ADD1B2" rx="11" ry="11" style="stroke:#A80036;stroke-width:1.0;"/><path d="M66.0938,18.6719 C65.1563,18.2344 64.5625,18.0938 63.6875,18.0938 C61.0625,18.0938 59.0625,20.1719 59.0625,22.8906 L59.0625,24.0156 C59.0625,26.5938 61.1719,28.4844 64.0625,28.4844 C65.2813,28.4844 66.4375,28.1875 67.1875,27.6406 C67.7656,27.2344 68.0938,26.7813 68.0938,26.3906 C68.0938,25.9375 67.7031,25.5469 67.2344,25.5469 C67.0156,25.5469 66.8125,25.625 66.625,25.8125 C66.1719,26.2969 66.1719,26.2969 65.9844,26.3906 C65.5625,26.6563 64.875,26.7813 64.1094,26.7813 C62.0625,26.7813 60.7656,25.6875 60.7656,23.9844 L60.7656,22.8906 C60.7656,21.1094 62.0156,19.7969 63.75,19.7969 C64.3281,19.7969 64.9375,19.9531 65.4063,20.2031 C65.8906,20.4844 66.0625,20.7031 66.1563,21.1094 C66.2188,21.5156 66.25,21.6406 66.3906,21.7656 C66.5313,21.9063 66.7656,22.0156 66.9844,22.0156 C67.25,22.0156 67.5156,21.875 67.6875,21.6563 C67.7969,21.5 67.8281,21.3125 67.8281,20.8906 L67.8281,19.4688 C67.8281,19.0313 67.8125,18.9063 67.7188,18.75 C67.5625,18.4844 67.2813,18.3438 66.9844,18.3438 C66.6875,18.3438 66.4844,18.4375 66.2656,18.75 L66.0938,18.6719 Z " fill="#000000"/><text fill="#000000" font-family="sans-serif" font-size="12" lengthAdjust="spacing" textLength="56" x="84.25" y="27.1543">Singleton</text><line style="stroke:#A80036;stroke-width:1.5;" x1="8" x2="184" y1="39" y2="39"/><rect fill="none" height="6" style="stroke:#C82930;stroke-width:1.0;" width="6" x="15" y="47"/><text fill="#000000" font-family="sans-serif" font-size="11" lengthAdjust="spacing" text-decoration="underline" textLength="106" x="27" y="53.2104">Singleton instance</text><ellipse cx="18" cy="62.8047" rx="3" ry="3" style="stroke:#038048;stroke-width:1.0;fill:none;"/><text fill="#000000" font-family="sans-serif" font-size="11" lengthAdjust="spacing" textLength="69" x="27" y="66.0151">String value</text><line style="stroke:#A80036;stroke-width:1.5;" x1="8" x2="184" y1="72.6094" y2="72.6094"/><rect fill="#F24D5C" height="6" style="stroke:#C82930;stroke-width:1.0;" width="6" x="15" y="80.6094"/><text fill="#000000" font-family="sans-serif" font-size="11" lengthAdjust="spacing" textLength="152" x="27" y="86.8198">Singleton(in value : String)</text><ellipse cx="18" cy="96.4141" fill="#84BE84" rx="3" ry="3" style="stroke:#038048;stroke-width:1.0;"/><text fill="#000000" font-family="sans-serif" font-size="11" lengthAdjust="spacing" text-decoration="underline" textLength="110" x="27" y="99.6245">getInstance() : void</text><!--MD5=[817352470a3880960c35981ea8b33b33]
@startuml
class Singleton {
  - {static} Singleton instance
  + String value

  - Singleton(in value : String)
  + {static} getInstance() : void
}
@enduml

PlantUML version 1.2021.11beta5(Unknown compile time)
(GPL source distribution)
Java Runtime: Java(TM) SE Runtime Environment
JVM: Java HotSpot(TM) 64-Bit Server VM
Default Encoding: UTF-8
Language: en
Country: US
--></g></svg>