<?xml version="1.0" encoding="UTF-8" standalone="no"?><svg xmlns="http://www.w3.org/2000/svg" xmlns:xlink="http://www.w3.org/1999/xlink" contentScriptType="application/ecmascript" contentStyleType="text/css" height="203px" preserveAspectRatio="none" style="width:570px;height:203px;background:#FFFFFF;" version="1.1" viewBox="0 0 570 203" width="570px" zoomAndPan="magnify"><defs><filter height="300%" id="f1ajrkk8k788ry" width="300%" x="-1" y="-1"><feGaussianBlur result="blurOut" stdDeviation="2.0"/><feColorMatrix in="blurOut" result="blurOut2" type="matrix" values="0 0 0 0 0 0 0 0 0 0 0 0 0 0 0 0 0 0 .4 0"/><feOffset dx="4.0" dy="4.0" in="blurOut2" result="blurOut3"/><feBlend in="SourceGraphic" in2="blurOut3" mode="normal"/></filter></defs><g><!--MD5=[90ba54f54370e77ef24813dec6818fa3]
class Button--><rect codeLine="1" fill="#FEFECE" filter="url(#f1ajrkk8k788ry)" height="73.6094" id="Button" style="stroke:#A80036;stroke-width:1.5;" width="109" x="63" y="7"/><ellipse cx="94.2" cy="23" fill="#B4A7E5" rx="11" ry="11" style="stroke:#A80036;stroke-width:1.0;"/><path d="M95.1531,19.7813 L96.8719,19.7813 C97.2625,19.7813 97.45,19.75 97.575,19.6719 C97.8406,19.5156 97.9813,19.2344 97.9813,18.9375 C97.9813,18.6719 97.8719,18.4063 97.6375,18.2344 C97.4656,18.125 97.325,18.0938 96.8719,18.0938 L91.7313,18.0938 C91.2938,18.0938 91.1688,18.1094 91.0125,18.2031 C90.7625,18.3594 90.6063,18.6563 90.6063,18.9375 C90.6063,19.2188 90.7469,19.4688 90.9656,19.6406 C91.1219,19.75 91.3094,19.7813 91.7313,19.7813 L93.45,19.7813 L93.45,26.2969 L91.7313,26.2969 C91.2938,26.2969 91.1688,26.3125 91.0125,26.4219 C90.7625,26.5781 90.6063,26.8594 90.6063,27.1563 C90.6063,27.4063 90.7469,27.6719 90.9656,27.8281 C91.1219,27.9531 91.325,28 91.7313,28 L96.8719,28 C97.6219,28 97.9813,27.7188 97.9813,27.1563 C97.9813,26.875 97.8719,26.625 97.6375,26.4531 C97.4656,26.3281 97.325,26.2969 96.8719,26.2969 L95.1531,26.2969 L95.1531,19.7813 Z " fill="#000000"/><text fill="#000000" font-family="sans-serif" font-size="12" font-style="italic" lengthAdjust="spacing" textLength="41" x="111.8" y="27.1543">Button</text><line style="stroke:#A80036;stroke-width:1.5;" x1="64" x2="171" y1="39" y2="39"/><line style="stroke:#A80036;stroke-width:1.5;" x1="64" x2="171" y1="47" y2="47"/><ellipse cx="74" cy="58" fill="#84BE84" rx="3" ry="3" style="stroke:#038048;stroke-width:1.0;"/><text fill="#000000" font-family="sans-serif" font-size="11" lengthAdjust="spacing" textLength="81" x="83" y="61.2104">render() : void</text><ellipse cx="74" cy="70.8047" fill="#84BE84" rx="3" ry="3" style="stroke:#038048;stroke-width:1.0;"/><text fill="#000000" font-family="sans-serif" font-size="11" lengthAdjust="spacing" textLength="83" x="83" y="74.0151">onClick() : void</text><!--MD5=[1bc74659ab5c008a5545c8be2f331ac5]
class HtmlButton--><rect codeLine="7" fill="#FEFECE" filter="url(#f1ajrkk8k788ry)" height="48" id="HtmlButton" style="stroke:#A80036;stroke-width:1.5;" width="97" x="7" y="141"/><ellipse cx="22" cy="157" fill="#ADD1B2" rx="11" ry="11" style="stroke:#A80036;stroke-width:1.0;"/><path d="M24.3438,152.6719 C23.4063,152.2344 22.8125,152.0938 21.9375,152.0938 C19.3125,152.0938 17.3125,154.1719 17.3125,156.8906 L17.3125,158.0156 C17.3125,160.5938 19.4219,162.4844 22.3125,162.4844 C23.5313,162.4844 24.6875,162.1875 25.4375,161.6406 C26.0156,161.2344 26.3438,160.7813 26.3438,160.3906 C26.3438,159.9375 25.9531,159.5469 25.4844,159.5469 C25.2656,159.5469 25.0625,159.625 24.875,159.8125 C24.4219,160.2969 24.4219,160.2969 24.2344,160.3906 C23.8125,160.6563 23.125,160.7813 22.3594,160.7813 C20.3125,160.7813 19.0156,159.6875 19.0156,157.9844 L19.0156,156.8906 C19.0156,155.1094 20.2656,153.7969 22,153.7969 C22.5781,153.7969 23.1875,153.9531 23.6563,154.2031 C24.1406,154.4844 24.3125,154.7031 24.4063,155.1094 C24.4688,155.5156 24.5,155.6406 24.6406,155.7656 C24.7813,155.9063 25.0156,156.0156 25.2344,156.0156 C25.5,156.0156 25.7656,155.875 25.9375,155.6563 C26.0469,155.5 26.0781,155.3125 26.0781,154.8906 L26.0781,153.4688 C26.0781,153.0313 26.0625,152.9063 25.9688,152.75 C25.8125,152.4844 25.5313,152.3438 25.2344,152.3438 C24.9375,152.3438 24.7344,152.4375 24.5156,152.75 L24.3438,152.6719 Z " fill="#000000"/><text fill="#000000" font-family="sans-serif" font-size="12" lengthAdjust="spacing" textLength="65" x="36" y="161.1543">HtmlButton</text><line style="stroke:#A80036;stroke-width:1.5;" x1="8" x2="103" y1="173" y2="173"/><line style="stroke:#A80036;stroke-width:1.5;" x1="8" x2="103" y1="181" y2="181"/><!--MD5=[e7ead23f5f29037e681f7eee9e8c75aa]
class WindowsButton--><rect codeLine="10" fill="#FEFECE" filter="url(#f1ajrkk8k788ry)" height="48" id="WindowsButton" style="stroke:#A80036;stroke-width:1.5;" width="125" x="139" y="141"/><ellipse cx="154" cy="157" fill="#ADD1B2" rx="11" ry="11" style="stroke:#A80036;stroke-width:1.0;"/><path d="M156.3438,152.6719 C155.4063,152.2344 154.8125,152.0938 153.9375,152.0938 C151.3125,152.0938 149.3125,154.1719 149.3125,156.8906 L149.3125,158.0156 C149.3125,160.5938 151.4219,162.4844 154.3125,162.4844 C155.5313,162.4844 156.6875,162.1875 157.4375,161.6406 C158.0156,161.2344 158.3438,160.7813 158.3438,160.3906 C158.3438,159.9375 157.9531,159.5469 157.4844,159.5469 C157.2656,159.5469 157.0625,159.625 156.875,159.8125 C156.4219,160.2969 156.4219,160.2969 156.2344,160.3906 C155.8125,160.6563 155.125,160.7813 154.3594,160.7813 C152.3125,160.7813 151.0156,159.6875 151.0156,157.9844 L151.0156,156.8906 C151.0156,155.1094 152.2656,153.7969 154,153.7969 C154.5781,153.7969 155.1875,153.9531 155.6563,154.2031 C156.1406,154.4844 156.3125,154.7031 156.4063,155.1094 C156.4688,155.5156 156.5,155.6406 156.6406,155.7656 C156.7813,155.9063 157.0156,156.0156 157.2344,156.0156 C157.5,156.0156 157.7656,155.875 157.9375,155.6563 C158.0469,155.5 158.0781,155.3125 158.0781,154.8906 L158.0781,153.4688 C158.0781,153.0313 158.0625,152.9063 157.9688,152.75 C157.8125,152.4844 157.5313,152.3438 157.2344,152.3438 C156.9375,152.3438 156.7344,152.4375 156.5156,152.75 L156.3438,152.6719 Z " fill="#000000"/><text fill="#000000" font-family="sans-serif" font-size="12" lengthAdjust="spacing" textLength="93" x="168" y="161.1543">WindowsButton</text><line style="stroke:#A80036;stroke-width:1.5;" x1="140" x2="263" y1="173" y2="173"/><line style="stroke:#A80036;stroke-width:1.5;" x1="140" x2="263" y1="181" y2="181"/><!--MD5=[c25c956ab0d33992fc5cdd0db284c9fa]
class Dialog--><rect codeLine="16" fill="#FEFECE" filter="url(#f1ajrkk8k788ry)" height="73.6094" id="Dialog" style="stroke:#A80036;stroke-width:1.5;" width="156" x="342.5" y="7"/><ellipse cx="397.75" cy="23" fill="#A9DCDF" rx="11" ry="11" style="stroke:#A80036;stroke-width:1.0;"/><path d="M399.8281,24.8125 L400.2188,25.7969 L399.8281,25.7969 C399.375,25.7969 399.2656,25.8125 399.1094,25.9219 C398.8594,26.0781 398.7031,26.3594 398.7031,26.6563 C398.7031,26.9219 398.8438,27.1719 399.0625,27.3281 C399.2031,27.4531 399.4063,27.5 399.8281,27.5 L402.1875,27.5 C402.5469,27.5 402.7656,27.4688 402.9063,27.375 C403.1563,27.2344 403.3125,26.9375 403.3125,26.6563 C403.3125,26.375 403.1719,26.125 402.9531,25.9688 C402.7813,25.8281 402.625,25.7969 402.1563,25.7969 L398.7656,17.5938 L395.0938,17.5938 C394.6406,17.5938 394.5156,17.6094 394.3594,17.7031 C394.1094,17.875 393.9531,18.1563 393.9531,18.4375 C393.9531,18.7188 394.0938,18.9688 394.3125,19.1406 C394.4844,19.25 394.6563,19.2813 395.0938,19.2813 L396.1719,19.2813 L393.5313,25.7969 C393.1094,25.7969 392.9531,25.8125 392.7969,25.9219 C392.5469,26.0781 392.3906,26.3594 392.3906,26.6563 C392.3906,27.2188 392.7656,27.5 393.5156,27.5 L395.7813,27.5 C396.1406,27.5 396.3594,27.4688 396.4844,27.375 C396.75,27.2344 396.8906,26.9375 396.8906,26.6563 C396.8906,26.375 396.7656,26.125 396.5469,25.9531 C396.375,25.8281 396.2344,25.7969 395.7813,25.7969 L395.3906,25.7969 L395.7813,24.8125 L399.8281,24.8125 Z M399.125,23.1094 L396.4531,23.1094 L397.7969,19.8438 L399.125,23.1094 Z " fill="#000000"/><text fill="#000000" font-family="sans-serif" font-size="12" font-style="italic" lengthAdjust="spacing" textLength="37" x="418.25" y="27.1543">Dialog</text><line style="stroke:#A80036;stroke-width:1.5;" x1="343.5" x2="497.5" y1="39" y2="39"/><line style="stroke:#A80036;stroke-width:1.5;" x1="343.5" x2="497.5" y1="47" y2="47"/><ellipse cx="353.5" cy="58" fill="#84BE84" rx="3" ry="3" style="stroke:#038048;stroke-width:1.0;"/><text fill="#000000" font-family="sans-serif" font-size="11" lengthAdjust="spacing" textLength="125" x="362.5" y="61.2104">renderWindow() : void</text><ellipse cx="353.5" cy="70.8047" fill="#84BE84" rx="3" ry="3" style="stroke:#038048;stroke-width:1.0;"/><text fill="#000000" font-family="sans-serif" font-size="11" font-style="italic" lengthAdjust="spacing" textLength="130" x="362.5" y="74.0151">createButton() : Button</text><!--MD5=[71599cc8c3c9302166b46130eb9e6e5e]
class HtmlDialog--><rect codeLine="21" fill="#FEFECE" filter="url(#f1ajrkk8k788ry)" height="48" id="HtmlDialog" style="stroke:#A80036;stroke-width:1.5;" width="97" x="299" y="141"/><ellipse cx="314" cy="157" fill="#ADD1B2" rx="11" ry="11" style="stroke:#A80036;stroke-width:1.0;"/><path d="M316.3438,152.6719 C315.4063,152.2344 314.8125,152.0938 313.9375,152.0938 C311.3125,152.0938 309.3125,154.1719 309.3125,156.8906 L309.3125,158.0156 C309.3125,160.5938 311.4219,162.4844 314.3125,162.4844 C315.5313,162.4844 316.6875,162.1875 317.4375,161.6406 C318.0156,161.2344 318.3438,160.7813 318.3438,160.3906 C318.3438,159.9375 317.9531,159.5469 317.4844,159.5469 C317.2656,159.5469 317.0625,159.625 316.875,159.8125 C316.4219,160.2969 316.4219,160.2969 316.2344,160.3906 C315.8125,160.6563 315.125,160.7813 314.3594,160.7813 C312.3125,160.7813 311.0156,159.6875 311.0156,157.9844 L311.0156,156.8906 C311.0156,155.1094 312.2656,153.7969 314,153.7969 C314.5781,153.7969 315.1875,153.9531 315.6563,154.2031 C316.1406,154.4844 316.3125,154.7031 316.4063,155.1094 C316.4688,155.5156 316.5,155.6406 316.6406,155.7656 C316.7813,155.9063 317.0156,156.0156 317.2344,156.0156 C317.5,156.0156 317.7656,155.875 317.9375,155.6563 C318.0469,155.5 318.0781,155.3125 318.0781,154.8906 L318.0781,153.4688 C318.0781,153.0313 318.0625,152.9063 317.9688,152.75 C317.8125,152.4844 317.5313,152.3438 317.2344,152.3438 C316.9375,152.3438 316.7344,152.4375 316.5156,152.75 L316.3438,152.6719 Z " fill="#000000"/><text fill="#000000" font-family="sans-serif" font-size="12" lengthAdjust="spacing" textLength="65" x="328" y="161.1543">HtmlDialog</text><line style="stroke:#A80036;stroke-width:1.5;" x1="300" x2="395" y1="173" y2="173"/><line style="stroke:#A80036;stroke-width:1.5;" x1="300" x2="395" y1="181" y2="181"/><!--MD5=[262844c8c8685b6921ea5ab7f2608e97]
class WindowsDialog--><rect codeLine="24" fill="#FEFECE" filter="url(#f1ajrkk8k788ry)" height="48" id="WindowsDialog" style="stroke:#A80036;stroke-width:1.5;" width="125" x="431" y="141"/><ellipse cx="446" cy="157" fill="#ADD1B2" rx="11" ry="11" style="stroke:#A80036;stroke-width:1.0;"/><path d="M448.3438,152.6719 C447.4063,152.2344 446.8125,152.0938 445.9375,152.0938 C443.3125,152.0938 441.3125,154.1719 441.3125,156.8906 L441.3125,158.0156 C441.3125,160.5938 443.4219,162.4844 446.3125,162.4844 C447.5313,162.4844 448.6875,162.1875 449.4375,161.6406 C450.0156,161.2344 450.3438,160.7813 450.3438,160.3906 C450.3438,159.9375 449.9531,159.5469 449.4844,159.5469 C449.2656,159.5469 449.0625,159.625 448.875,159.8125 C448.4219,160.2969 448.4219,160.2969 448.2344,160.3906 C447.8125,160.6563 447.125,160.7813 446.3594,160.7813 C444.3125,160.7813 443.0156,159.6875 443.0156,157.9844 L443.0156,156.8906 C443.0156,155.1094 444.2656,153.7969 446,153.7969 C446.5781,153.7969 447.1875,153.9531 447.6563,154.2031 C448.1406,154.4844 448.3125,154.7031 448.4063,155.1094 C448.4688,155.5156 448.5,155.6406 448.6406,155.7656 C448.7813,155.9063 449.0156,156.0156 449.2344,156.0156 C449.5,156.0156 449.7656,155.875 449.9375,155.6563 C450.0469,155.5 450.0781,155.3125 450.0781,154.8906 L450.0781,153.4688 C450.0781,153.0313 450.0625,152.9063 449.9688,152.75 C449.8125,152.4844 449.5313,152.3438 449.2344,152.3438 C448.9375,152.3438 448.7344,152.4375 448.5156,152.75 L448.3438,152.6719 Z " fill="#000000"/><text fill="#000000" font-family="sans-serif" font-size="12" lengthAdjust="spacing" textLength="93" x="460" y="161.1543">WindowsDialog</text><line style="stroke:#A80036;stroke-width:1.5;" x1="432" x2="555" y1="173" y2="173"/><line style="stroke:#A80036;stroke-width:1.5;" x1="432" x2="555" y1="181" y2="181"/><!--MD5=[7a1daf76e33c249b107a9606ec5c118b]
reverse link Button to HtmlButton--><path codeLine="13" d="M89.3086,99.1093 C81.6621,113.7857 73.7857,128.9032 67.5611,140.8505 " fill="none" id="Button-backto-HtmlButton" style="stroke:#A80036;stroke-width:1.0;stroke-dasharray:7.0,7.0;"/><polygon fill="none" points="83.2806,95.5295,98.7297,81.027,95.6965,101.9983,83.2806,95.5295" style="stroke:#A80036;stroke-width:1.0;"/><!--MD5=[e18339c8002be8ea8941e593fb806cbc]
reverse link Button to WindowsButton--><path codeLine="14" d="M154.66,97.6432 C165.341,112.7743 176.445,128.5049 185.159,140.8505 " fill="none" id="Button-backto-WindowsButton" style="stroke:#A80036;stroke-width:1.0;stroke-dasharray:7.0,7.0;"/><polygon fill="none" points="148.746,101.403,142.931,81.027,160.183,93.3294,148.746,101.403" style="stroke:#A80036;stroke-width:1.0;"/><!--MD5=[92c85c87cd9fffbbd7dd5b8ef1136b90]
reverse link Dialog to HtmlDialog--><path codeLine="27" d="M387.907,98.1315 C378.717,113.1122 369.193,128.6377 361.701,140.8505 " fill="none" id="Dialog-backto-HtmlDialog" style="stroke:#A80036;stroke-width:1.0;stroke-dasharray:7.0,7.0;"/><polygon fill="none" points="381.975,94.4145,398.399,81.027,393.908,101.7351,381.975,94.4145" style="stroke:#A80036;stroke-width:1.0;"/><!--MD5=[0539b136ca8e9f20e53a9d427fbeac5e]
reverse link Dialog to WindowsDialog--><path codeLine="28" d="M453.093,98.1315 C462.283,113.1122 471.807,128.6377 479.299,140.8505 " fill="none" id="Dialog-backto-WindowsDialog" style="stroke:#A80036;stroke-width:1.0;stroke-dasharray:7.0,7.0;"/><polygon fill="none" points="447.092,101.7351,442.601,81.027,459.025,94.4145,447.092,101.7351" style="stroke:#A80036;stroke-width:1.0;"/><!--MD5=[5daf542a64ebcddedc6c91c6293c7f4e]
@startuml
interface Button {
    + render() : void
    + onClick() : void
}


class HtmlButton {
}

class WindowsButton {
}

Button <|.. HtmlButton
Button <|.. WindowsButton

abstract Dialog {
    + renderWindow() : void
    + {abstract} createButton() : Button 
}

class HtmlDialog {
}

class WindowsDialog {
}

Dialog <|.. HtmlDialog
Dialog <|.. WindowsDialog
@enduml

PlantUML version 1.2021.11beta5(Unknown compile time)
(GPL source distribution)
Java Runtime: Java(TM) SE Runtime Environment
JVM: Java HotSpot(TM) 64-Bit Server VM
Default Encoding: UTF-8
Language: en
Country: US
--></g></svg>