<?xml version="1.0" encoding="UTF-8" standalone="no"?><svg xmlns="http://www.w3.org/2000/svg" xmlns:xlink="http://www.w3.org/1999/xlink" contentScriptType="application/ecmascript" contentStyleType="text/css" height="253px" preserveAspectRatio="none" style="width:319px;height:253px;background:#FFFFFF;" version="1.1" viewBox="0 0 319 253" width="319px" zoomAndPan="magnify"><defs><filter height="300%" id="f1a7mht3ot8gdx" width="300%" x="-1" y="-1"><feGaussianBlur result="blurOut" stdDeviation="2.0"/><feColorMatrix in="blurOut" result="blurOut2" type="matrix" values="0 0 0 0 0 0 0 0 0 0 0 0 0 0 0 0 0 0 .4 0"/><feOffset dx="4.0" dy="4.0" in="blurOut2" result="blurOut3"/><feBlend in="SourceGraphic" in2="blurOut3" mode="normal"/></filter></defs><g><!--MD5=[b5313cd49da22b0744b541f414f8445e]
class Rectangle--><rect codeLine="1" fill="#FEFECE" filter="url(#f1a7mht3ot8gdx)" height="112.0234" id="Rectangle" style="stroke:#A80036;stroke-width:1.5;" width="298" x="7" y="7"/><ellipse cx="122.25" cy="23" fill="#ADD1B2" rx="11" ry="11" style="stroke:#A80036;stroke-width:1.0;"/><path d="M124.5938,18.6719 C123.6563,18.2344 123.0625,18.0938 122.1875,18.0938 C119.5625,18.0938 117.5625,20.1719 117.5625,22.8906 L117.5625,24.0156 C117.5625,26.5938 119.6719,28.4844 122.5625,28.4844 C123.7813,28.4844 124.9375,28.1875 125.6875,27.6406 C126.2656,27.2344 126.5938,26.7813 126.5938,26.3906 C126.5938,25.9375 126.2031,25.5469 125.7344,25.5469 C125.5156,25.5469 125.3125,25.625 125.125,25.8125 C124.6719,26.2969 124.6719,26.2969 124.4844,26.3906 C124.0625,26.6563 123.375,26.7813 122.6094,26.7813 C120.5625,26.7813 119.2656,25.6875 119.2656,23.9844 L119.2656,22.8906 C119.2656,21.1094 120.5156,19.7969 122.25,19.7969 C122.8281,19.7969 123.4375,19.9531 123.9063,20.2031 C124.3906,20.4844 124.5625,20.7031 124.6563,21.1094 C124.7188,21.5156 124.75,21.6406 124.8906,21.7656 C125.0313,21.9063 125.2656,22.0156 125.4844,22.0156 C125.75,22.0156 126.0156,21.875 126.1875,21.6563 C126.2969,21.5 126.3281,21.3125 126.3281,20.8906 L126.3281,19.4688 C126.3281,19.0313 126.3125,18.9063 126.2188,18.75 C126.0625,18.4844 125.7813,18.3438 125.4844,18.3438 C125.1875,18.3438 124.9844,18.4375 124.7656,18.75 L124.5938,18.6719 Z " fill="#000000"/><text fill="#000000" font-family="sans-serif" font-size="12" lengthAdjust="spacing" textLength="59" x="142.75" y="27.1543">Rectangle</text><line style="stroke:#A80036;stroke-width:1.5;" x1="8" x2="304" y1="39" y2="39"/><rect fill="none" height="6" style="stroke:#C82930;stroke-width:1.0;" width="6" x="15" y="47"/><text fill="#000000" font-family="sans-serif" font-size="11" lengthAdjust="spacing" textLength="81" x="27" y="53.2104">Double height</text><rect fill="none" height="6" style="stroke:#C82930;stroke-width:1.0;" width="6" x="15" y="59.8047"/><text fill="#000000" font-family="sans-serif" font-size="11" lengthAdjust="spacing" textLength="75" x="27" y="66.0151">Double width</text><line style="stroke:#A80036;stroke-width:1.5;" x1="8" x2="304" y1="72.6094" y2="72.6094"/><ellipse cx="18" cy="83.6094" fill="#84BE84" rx="3" ry="3" style="stroke:#038048;stroke-width:1.0;"/><text fill="#000000" font-family="sans-serif" font-size="11" lengthAdjust="spacing" textLength="272" x="27" y="86.8198">Rectangle(in weight : Double, in width : Double)</text><ellipse cx="18" cy="96.4141" fill="#84BE84" rx="3" ry="3" style="stroke:#038048;stroke-width:1.0;"/><text fill="#000000" font-family="sans-serif" font-size="11" lengthAdjust="spacing" textLength="159" x="27" y="99.6245">Double computePerimeter()</text><ellipse cx="18" cy="109.2188" fill="#84BE84" rx="3" ry="3" style="stroke:#038048;stroke-width:1.0;"/><text fill="#000000" font-family="sans-serif" font-size="11" lengthAdjust="spacing" textLength="130" x="27" y="112.4292">Double computeArea()</text><!--MD5=[271c9bd56a4dca82ed2c9fa58097638e]
class Carre--><rect codeLine="9" fill="#FEFECE" filter="url(#f1a7mht3ot8gdx)" height="60.8047" id="Carre" style="stroke:#A80036;stroke-width:1.5;" width="194" x="59" y="179"/><ellipse cx="135.25" cy="195" fill="#ADD1B2" rx="11" ry="11" style="stroke:#A80036;stroke-width:1.0;"/><path d="M137.5938,190.6719 C136.6563,190.2344 136.0625,190.0938 135.1875,190.0938 C132.5625,190.0938 130.5625,192.1719 130.5625,194.8906 L130.5625,196.0156 C130.5625,198.5938 132.6719,200.4844 135.5625,200.4844 C136.7813,200.4844 137.9375,200.1875 138.6875,199.6406 C139.2656,199.2344 139.5938,198.7813 139.5938,198.3906 C139.5938,197.9375 139.2031,197.5469 138.7344,197.5469 C138.5156,197.5469 138.3125,197.625 138.125,197.8125 C137.6719,198.2969 137.6719,198.2969 137.4844,198.3906 C137.0625,198.6563 136.375,198.7813 135.6094,198.7813 C133.5625,198.7813 132.2656,197.6875 132.2656,195.9844 L132.2656,194.8906 C132.2656,193.1094 133.5156,191.7969 135.25,191.7969 C135.8281,191.7969 136.4375,191.9531 136.9063,192.2031 C137.3906,192.4844 137.5625,192.7031 137.6563,193.1094 C137.7188,193.5156 137.75,193.6406 137.8906,193.7656 C138.0313,193.9063 138.2656,194.0156 138.4844,194.0156 C138.75,194.0156 139.0156,193.875 139.1875,193.6563 C139.2969,193.5 139.3281,193.3125 139.3281,192.8906 L139.3281,191.4688 C139.3281,191.0313 139.3125,190.9063 139.2188,190.75 C139.0625,190.4844 138.7813,190.3438 138.4844,190.3438 C138.1875,190.3438 137.9844,190.4375 137.7656,190.75 L137.5938,190.6719 Z " fill="#000000"/><text fill="#000000" font-family="sans-serif" font-size="12" lengthAdjust="spacing" textLength="33" x="155.75" y="199.1543">Carre</text><line style="stroke:#A80036;stroke-width:1.5;" x1="60" x2="252" y1="211" y2="211"/><line style="stroke:#A80036;stroke-width:1.5;" x1="60" x2="252" y1="219" y2="219"/><ellipse cx="70" cy="230" fill="#84BE84" rx="3" ry="3" style="stroke:#038048;stroke-width:1.0;"/><text fill="#000000" font-family="sans-serif" font-size="11" lengthAdjust="spacing" textLength="168" x="79" y="233.2104">Carre(in sideLength : Double)</text><!--MD5=[7c1a3067942dfe3ce41862c3a5ccf4c1]
reverse link Rectangle to Carre--><path codeLine="13" d="M156,139.359 C156,153.3168 156,167.1197 156,178.6786 " fill="none" id="Rectangle-backto-Carre" style="stroke:#A80036;stroke-width:1.0;"/><polygon fill="none" points="149,139.042,156,119.041,163,139.041,149,139.042" style="stroke:#A80036;stroke-width:1.0;"/><!--MD5=[a82d1f99ebd964caea1f259001733661]
@startuml
class Rectangle {
    -Double height
    -Double width
    +Rectangle(in weight : Double, in width : Double)
    +Double computePerimeter()
    +Double computeArea()
}

class Carre {
    +Carre(in sideLength : Double)
}

Rectangle <|- - Carre
@enduml

PlantUML version 1.2021.11beta5(Unknown compile time)
(GPL source distribution)
Java Runtime: Java(TM) SE Runtime Environment
JVM: Java HotSpot(TM) 64-Bit Server VM
Default Encoding: UTF-8
Language: en
Country: US
--></g></svg>