<?xml version="1.0" encoding="UTF-8" standalone="no"?><svg xmlns="http://www.w3.org/2000/svg" xmlns:xlink="http://www.w3.org/1999/xlink" contentScriptType="application/ecmascript" contentStyleType="text/css" height="700px" preserveAspectRatio="none" style="width:3823px;height:700px;background:#FFFFFF;" version="1.1" viewBox="0 0 3823 700" width="3823px" zoomAndPan="magnify"><defs><filter height="300%" id="f1i4flobrv8rqd" width="300%" x="-1" y="-1"><feGaussianBlur result="blurOut" stdDeviation="2.0"/><feColorMatrix in="blurOut" result="blurOut2" type="matrix" values="0 0 0 0 0 0 0 0 0 0 0 0 0 0 0 0 0 0 .4 0"/><feOffset dx="4.0" dy="4.0" in="blurOut2" result="blurOut3"/><feBlend in="SourceGraphic" in2="blurOut3" mode="normal"/></filter></defs><g><!--MD5=[aca9734dd8820df494e23996088690bc]
cluster entites--><polygon fill="#FFFFFF" filter="url(#f1i4flobrv8rqd)" points="3118,6,3182,6,3189,28.2969,3806,28.2969,3806,693.5,3118,693.5,3118,6" style="stroke:#000000;stroke-width:1.5;"/><line style="stroke:#000000;stroke-width:1.5;" x1="3118" x2="3189" y1="28.2969" y2="28.2969"/><text fill="#000000" font-family="sans-serif" font-size="14" font-weight="bold" lengthAdjust="spacing" textLength="58" x="3122" y="20.9951">entites</text><!--MD5=[03c2ecdfa11f70b38eb496afaf3adc6b]
cluster services--><polygon fill="#FFFFFF" filter="url(#f1i4flobrv8rqd)" points="16,174.5,88,174.5,95,196.7969,1960,196.7969,1960,350.5,16,350.5,16,174.5" style="stroke:#000000;stroke-width:1.5;"/><line style="stroke:#000000;stroke-width:1.5;" x1="16" x2="95" y1="196.7969" y2="196.7969"/><text fill="#000000" font-family="sans-serif" font-size="14" font-weight="bold" lengthAdjust="spacing" textLength="66" x="20" y="189.4951">services</text><!--MD5=[c4503bf71148a95c6d1337cba45d5ef3]
cluster services.impl--><polygon fill="#FFFFFF" filter="url(#f1i4flobrv8rqd)" points="742,399.5,854,399.5,861,421.7969,1881,421.7969,1881,517.5,742,517.5,742,399.5" style="stroke:#000000;stroke-width:1.5;"/><line style="stroke:#000000;stroke-width:1.5;" x1="742" x2="861" y1="421.7969" y2="421.7969"/><text fill="#000000" font-family="sans-serif" font-size="14" font-weight="bold" lengthAdjust="spacing" textLength="106" x="746" y="414.4951">services.impl</text><!--MD5=[4337fef93a4164fb5e17f09a2ace23d6]
class Personne--><rect codeLine="2" fill="#FEFECE" filter="url(#f1i4flobrv8rqd)" height="73.6094" id="Personne" style="stroke:#A80036;stroke-width:1.5;" width="107" x="3358.5" y="431"/><ellipse cx="3382.05" cy="447" fill="#ADD1B2" rx="11" ry="11" style="stroke:#A80036;stroke-width:1.0;"/><path d="M3384.3938,442.6719 C3383.4563,442.2344 3382.8625,442.0938 3381.9875,442.0938 C3379.3625,442.0938 3377.3625,444.1719 3377.3625,446.8906 L3377.3625,448.0156 C3377.3625,450.5938 3379.4719,452.4844 3382.3625,452.4844 C3383.5813,452.4844 3384.7375,452.1875 3385.4875,451.6406 C3386.0656,451.2344 3386.3938,450.7813 3386.3938,450.3906 C3386.3938,449.9375 3386.0031,449.5469 3385.5344,449.5469 C3385.3156,449.5469 3385.1125,449.625 3384.925,449.8125 C3384.4719,450.2969 3384.4719,450.2969 3384.2844,450.3906 C3383.8625,450.6563 3383.175,450.7813 3382.4094,450.7813 C3380.3625,450.7813 3379.0656,449.6875 3379.0656,447.9844 L3379.0656,446.8906 C3379.0656,445.1094 3380.3156,443.7969 3382.05,443.7969 C3382.6281,443.7969 3383.2375,443.9531 3383.7063,444.2031 C3384.1906,444.4844 3384.3625,444.7031 3384.4563,445.1094 C3384.5188,445.5156 3384.55,445.6406 3384.6906,445.7656 C3384.8313,445.9063 3385.0656,446.0156 3385.2844,446.0156 C3385.55,446.0156 3385.8156,445.875 3385.9875,445.6563 C3386.0969,445.5 3386.1281,445.3125 3386.1281,444.8906 L3386.1281,443.4688 C3386.1281,443.0313 3386.1125,442.9063 3386.0188,442.75 C3385.8625,442.4844 3385.5813,442.3438 3385.2844,442.3438 C3384.9875,442.3438 3384.7844,442.4375 3384.5656,442.75 L3384.3938,442.6719 Z " fill="#000000"/><text fill="#000000" font-family="sans-serif" font-size="12" lengthAdjust="spacing" textLength="56" x="3397.95" y="451.1543">Personne</text><line style="stroke:#A80036;stroke-width:1.5;" x1="3359.5" x2="3464.5" y1="463" y2="463"/><polygon fill="none" points="3369.5,469,3373.5,473,3369.5,477,3365.5,473" style="stroke:#B38D22;stroke-width:1.0;"/><text fill="#000000" font-family="sans-serif" font-size="11" lengthAdjust="spacing" textLength="62" x="3378.5" y="477.2104">String nom</text><polygon fill="none" points="3369.5,481.8047,3373.5,485.8047,3369.5,489.8047,3365.5,485.8047" style="stroke:#B38D22;stroke-width:1.0;"/><text fill="#000000" font-family="sans-serif" font-size="11" lengthAdjust="spacing" textLength="81" x="3378.5" y="490.0151">String prenom</text><line style="stroke:#A80036;stroke-width:1.5;" x1="3359.5" x2="3464.5" y1="496.6094" y2="496.6094"/><!--MD5=[aac899e22da5850fb9a0006f3766a31d]
class Banque--><rect codeLine="6" fill="#FEFECE" filter="url(#f1i4flobrv8rqd)" height="60.8047" id="Banque" style="stroke:#A80036;stroke-width:1.5;" width="135" x="3239.5" y="41"/><ellipse cx="3280.6" cy="57" fill="#ADD1B2" rx="11" ry="11" style="stroke:#A80036;stroke-width:1.0;"/><path d="M3282.9438,52.6719 C3282.0063,52.2344 3281.4125,52.0938 3280.5375,52.0938 C3277.9125,52.0938 3275.9125,54.1719 3275.9125,56.8906 L3275.9125,58.0156 C3275.9125,60.5938 3278.0219,62.4844 3280.9125,62.4844 C3282.1313,62.4844 3283.2875,62.1875 3284.0375,61.6406 C3284.6156,61.2344 3284.9438,60.7813 3284.9438,60.3906 C3284.9438,59.9375 3284.5531,59.5469 3284.0844,59.5469 C3283.8656,59.5469 3283.6625,59.625 3283.475,59.8125 C3283.0219,60.2969 3283.0219,60.2969 3282.8344,60.3906 C3282.4125,60.6563 3281.725,60.7813 3280.9594,60.7813 C3278.9125,60.7813 3277.6156,59.6875 3277.6156,57.9844 L3277.6156,56.8906 C3277.6156,55.1094 3278.8656,53.7969 3280.6,53.7969 C3281.1781,53.7969 3281.7875,53.9531 3282.2563,54.2031 C3282.7406,54.4844 3282.9125,54.7031 3283.0063,55.1094 C3283.0688,55.5156 3283.1,55.6406 3283.2406,55.7656 C3283.3813,55.9063 3283.6156,56.0156 3283.8344,56.0156 C3284.1,56.0156 3284.3656,55.875 3284.5375,55.6563 C3284.6469,55.5 3284.6781,55.3125 3284.6781,54.8906 L3284.6781,53.4688 C3284.6781,53.0313 3284.6625,52.9063 3284.5688,52.75 C3284.4125,52.4844 3284.1313,52.3438 3283.8344,52.3438 C3283.5375,52.3438 3283.3344,52.4375 3283.1156,52.75 L3282.9438,52.6719 Z " fill="#000000"/><text fill="#000000" font-family="sans-serif" font-size="12" lengthAdjust="spacing" textLength="45" x="3300.4" y="61.1543">Banque</text><line style="stroke:#A80036;stroke-width:1.5;" x1="3240.5" x2="3373.5" y1="73" y2="73"/><polygon fill="none" points="3250.5,79,3254.5,83,3250.5,87,3246.5,83" style="stroke:#B38D22;stroke-width:1.0;"/><text fill="#000000" font-family="sans-serif" font-size="11" lengthAdjust="spacing" textLength="109" x="3259.5" y="87.2104">String codeBanque</text><line style="stroke:#A80036;stroke-width:1.5;" x1="3240.5" x2="3373.5" y1="93.8047" y2="93.8047"/><!--MD5=[ecebb445cf11bf2e34d75e8f05665b95]
class CompteBancaire--><rect codeLine="9" fill="#FEFECE" filter="url(#f1i4flobrv8rqd)" height="124.8281" id="CompteBancaire" style="stroke:#A80036;stroke-width:1.5;" width="135" x="3344.5" y="209.5"/><ellipse cx="3361.3" cy="225.5" fill="#A9DCDF" rx="11" ry="11" style="stroke:#A80036;stroke-width:1.0;"/><path d="M3363.3781,227.3125 L3363.7688,228.2969 L3363.3781,228.2969 C3362.925,228.2969 3362.8156,228.3125 3362.6594,228.4219 C3362.4094,228.5781 3362.2531,228.8594 3362.2531,229.1563 C3362.2531,229.4219 3362.3938,229.6719 3362.6125,229.8281 C3362.7531,229.9531 3362.9563,230 3363.3781,230 L3365.7375,230 C3366.0969,230 3366.3156,229.9688 3366.4563,229.875 C3366.7063,229.7344 3366.8625,229.4375 3366.8625,229.1563 C3366.8625,228.875 3366.7219,228.625 3366.5031,228.4688 C3366.3313,228.3281 3366.175,228.2969 3365.7063,228.2969 L3362.3156,220.0938 L3358.6438,220.0938 C3358.1906,220.0938 3358.0656,220.1094 3357.9094,220.2031 C3357.6594,220.375 3357.5031,220.6563 3357.5031,220.9375 C3357.5031,221.2188 3357.6438,221.4688 3357.8625,221.6406 C3358.0344,221.75 3358.2063,221.7813 3358.6438,221.7813 L3359.7219,221.7813 L3357.0813,228.2969 C3356.6594,228.2969 3356.5031,228.3125 3356.3469,228.4219 C3356.0969,228.5781 3355.9406,228.8594 3355.9406,229.1563 C3355.9406,229.7188 3356.3156,230 3357.0656,230 L3359.3313,230 C3359.6906,230 3359.9094,229.9688 3360.0344,229.875 C3360.3,229.7344 3360.4406,229.4375 3360.4406,229.1563 C3360.4406,228.875 3360.3156,228.625 3360.0969,228.4531 C3359.925,228.3281 3359.7844,228.2969 3359.3313,228.2969 L3358.9406,228.2969 L3359.3313,227.3125 L3363.3781,227.3125 Z M3362.675,225.6094 L3360.0031,225.6094 L3361.3469,222.3438 L3362.675,225.6094 Z " fill="#000000"/><text fill="#000000" font-family="sans-serif" font-size="12" font-style="italic" lengthAdjust="spacing" textLength="99" x="3375.7" y="229.6543">CompteBancaire</text><line style="stroke:#A80036;stroke-width:1.5;" x1="3345.5" x2="3478.5" y1="241.5" y2="241.5"/><polygon fill="none" points="3355.5,247.5,3359.5,251.5,3355.5,255.5,3351.5,251.5" style="stroke:#B38D22;stroke-width:1.0;"/><text fill="#000000" font-family="sans-serif" font-size="11" lengthAdjust="spacing" textLength="109" x="3364.5" y="255.7104">String codeBanque</text><polygon fill="none" points="3355.5,260.3047,3359.5,264.3047,3355.5,268.3047,3351.5,264.3047" style="stroke:#B38D22;stroke-width:1.0;"/><text fill="#000000" font-family="sans-serif" font-size="11" lengthAdjust="spacing" textLength="109" x="3364.5" y="268.5151">String codeGuichet</text><polygon fill="none" points="3355.5,273.1094,3359.5,277.1094,3355.5,281.1094,3351.5,277.1094" style="stroke:#B38D22;stroke-width:1.0;"/><text fill="#000000" font-family="sans-serif" font-size="11" lengthAdjust="spacing" textLength="107" x="3364.5" y="281.3198">String numCompte</text><polygon fill="none" points="3355.5,285.9141,3359.5,289.9141,3355.5,293.9141,3351.5,289.9141" style="stroke:#B38D22;stroke-width:1.0;"/><text fill="#000000" font-family="sans-serif" font-size="11" lengthAdjust="spacing" textLength="54" x="3364.5" y="294.1245">String cle</text><polygon fill="none" points="3355.5,298.7188,3359.5,302.7188,3355.5,306.7188,3351.5,302.7188" style="stroke:#B38D22;stroke-width:1.0;"/><text fill="#000000" font-family="sans-serif" font-size="11" lengthAdjust="spacing" textLength="76" x="3364.5" y="306.9292">Double solde</text><line style="stroke:#A80036;stroke-width:1.5;" x1="3345.5" x2="3478.5" y1="313.5234" y2="313.5234"/><ellipse cx="3355.5" cy="324.5234" fill="#84BE84" rx="3" ry="3" style="stroke:#038048;stroke-width:1.0;"/><text fill="#000000" font-family="sans-serif" font-size="11" lengthAdjust="spacing" textLength="81" x="3364.5" y="327.7339">String getRib()</text><!--MD5=[ebfdca7f475abcc805c7ccf297fa0985]
class CompteCourant--><rect codeLine="17" fill="#FEFECE" filter="url(#f1i4flobrv8rqd)" height="48" id="CompteCourant" style="stroke:#A80036;stroke-width:1.5;" width="125" x="3500.5" y="444"/><ellipse cx="3515.5" cy="460" fill="#ADD1B2" rx="11" ry="11" style="stroke:#A80036;stroke-width:1.0;"/><path d="M3517.8438,455.6719 C3516.9063,455.2344 3516.3125,455.0938 3515.4375,455.0938 C3512.8125,455.0938 3510.8125,457.1719 3510.8125,459.8906 L3510.8125,461.0156 C3510.8125,463.5938 3512.9219,465.4844 3515.8125,465.4844 C3517.0313,465.4844 3518.1875,465.1875 3518.9375,464.6406 C3519.5156,464.2344 3519.8438,463.7813 3519.8438,463.3906 C3519.8438,462.9375 3519.4531,462.5469 3518.9844,462.5469 C3518.7656,462.5469 3518.5625,462.625 3518.375,462.8125 C3517.9219,463.2969 3517.9219,463.2969 3517.7344,463.3906 C3517.3125,463.6563 3516.625,463.7813 3515.8594,463.7813 C3513.8125,463.7813 3512.5156,462.6875 3512.5156,460.9844 L3512.5156,459.8906 C3512.5156,458.1094 3513.7656,456.7969 3515.5,456.7969 C3516.0781,456.7969 3516.6875,456.9531 3517.1563,457.2031 C3517.6406,457.4844 3517.8125,457.7031 3517.9063,458.1094 C3517.9688,458.5156 3518,458.6406 3518.1406,458.7656 C3518.2813,458.9063 3518.5156,459.0156 3518.7344,459.0156 C3519,459.0156 3519.2656,458.875 3519.4375,458.6563 C3519.5469,458.5 3519.5781,458.3125 3519.5781,457.8906 L3519.5781,456.4688 C3519.5781,456.0313 3519.5625,455.9063 3519.4688,455.75 C3519.3125,455.4844 3519.0313,455.3438 3518.7344,455.3438 C3518.4375,455.3438 3518.2344,455.4375 3518.0156,455.75 L3517.8438,455.6719 Z " fill="#000000"/><text fill="#000000" font-family="sans-serif" font-size="12" lengthAdjust="spacing" textLength="93" x="3529.5" y="464.1543">CompteCourant</text><line style="stroke:#A80036;stroke-width:1.5;" x1="3501.5" x2="3624.5" y1="476" y2="476"/><line style="stroke:#A80036;stroke-width:1.5;" x1="3501.5" x2="3624.5" y1="484" y2="484"/><!--MD5=[fb5cef70b188690fc2f6d8d4624c70aa]
class CompteEpargne--><rect codeLine="19" fill="#FEFECE" filter="url(#f1i4flobrv8rqd)" height="60.8047" id="CompteEpargne" style="stroke:#A80036;stroke-width:1.5;" width="129" x="3660.5" y="437.5"/><ellipse cx="3675.5" cy="453.5" fill="#ADD1B2" rx="11" ry="11" style="stroke:#A80036;stroke-width:1.0;"/><path d="M3677.8438,449.1719 C3676.9063,448.7344 3676.3125,448.5938 3675.4375,448.5938 C3672.8125,448.5938 3670.8125,450.6719 3670.8125,453.3906 L3670.8125,454.5156 C3670.8125,457.0938 3672.9219,458.9844 3675.8125,458.9844 C3677.0313,458.9844 3678.1875,458.6875 3678.9375,458.1406 C3679.5156,457.7344 3679.8438,457.2813 3679.8438,456.8906 C3679.8438,456.4375 3679.4531,456.0469 3678.9844,456.0469 C3678.7656,456.0469 3678.5625,456.125 3678.375,456.3125 C3677.9219,456.7969 3677.9219,456.7969 3677.7344,456.8906 C3677.3125,457.1563 3676.625,457.2813 3675.8594,457.2813 C3673.8125,457.2813 3672.5156,456.1875 3672.5156,454.4844 L3672.5156,453.3906 C3672.5156,451.6094 3673.7656,450.2969 3675.5,450.2969 C3676.0781,450.2969 3676.6875,450.4531 3677.1563,450.7031 C3677.6406,450.9844 3677.8125,451.2031 3677.9063,451.6094 C3677.9688,452.0156 3678,452.1406 3678.1406,452.2656 C3678.2813,452.4063 3678.5156,452.5156 3678.7344,452.5156 C3679,452.5156 3679.2656,452.375 3679.4375,452.1563 C3679.5469,452 3679.5781,451.8125 3679.5781,451.3906 L3679.5781,449.9688 C3679.5781,449.5313 3679.5625,449.4063 3679.4688,449.25 C3679.3125,448.9844 3679.0313,448.8438 3678.7344,448.8438 C3678.4375,448.8438 3678.2344,448.9375 3678.0156,449.25 L3677.8438,449.1719 Z " fill="#000000"/><text fill="#000000" font-family="sans-serif" font-size="12" lengthAdjust="spacing" textLength="97" x="3689.5" y="457.6543">CompteEpargne</text><line style="stroke:#A80036;stroke-width:1.5;" x1="3661.5" x2="3788.5" y1="469.5" y2="469.5"/><polygon fill="none" points="3671.5,475.5,3675.5,479.5,3671.5,483.5,3667.5,479.5" style="stroke:#B38D22;stroke-width:1.0;"/><text fill="#000000" font-family="sans-serif" font-size="11" lengthAdjust="spacing" textLength="94" x="3680.5" y="483.7104">Double txInteret</text><line style="stroke:#A80036;stroke-width:1.5;" x1="3661.5" x2="3788.5" y1="490.3047" y2="490.3047"/><!--MD5=[cca5d97aaf46870920fae66c9bd85cdd]
class Operation--><rect codeLine="22" fill="#FEFECE" filter="url(#f1i4flobrv8rqd)" height="99.2188" id="Operation" style="stroke:#A80036;stroke-width:1.5;" width="152" x="3171" y="418.5"/><ellipse cx="3213" cy="434.5" fill="#ADD1B2" rx="11" ry="11" style="stroke:#A80036;stroke-width:1.0;"/><path d="M3215.3438,430.1719 C3214.4063,429.7344 3213.8125,429.5938 3212.9375,429.5938 C3210.3125,429.5938 3208.3125,431.6719 3208.3125,434.3906 L3208.3125,435.5156 C3208.3125,438.0938 3210.4219,439.9844 3213.3125,439.9844 C3214.5313,439.9844 3215.6875,439.6875 3216.4375,439.1406 C3217.0156,438.7344 3217.3438,438.2813 3217.3438,437.8906 C3217.3438,437.4375 3216.9531,437.0469 3216.4844,437.0469 C3216.2656,437.0469 3216.0625,437.125 3215.875,437.3125 C3215.4219,437.7969 3215.4219,437.7969 3215.2344,437.8906 C3214.8125,438.1563 3214.125,438.2813 3213.3594,438.2813 C3211.3125,438.2813 3210.0156,437.1875 3210.0156,435.4844 L3210.0156,434.3906 C3210.0156,432.6094 3211.2656,431.2969 3213,431.2969 C3213.5781,431.2969 3214.1875,431.4531 3214.6563,431.7031 C3215.1406,431.9844 3215.3125,432.2031 3215.4063,432.6094 C3215.4688,433.0156 3215.5,433.1406 3215.6406,433.2656 C3215.7813,433.4063 3216.0156,433.5156 3216.2344,433.5156 C3216.5,433.5156 3216.7656,433.375 3216.9375,433.1563 C3217.0469,433 3217.0781,432.8125 3217.0781,432.3906 L3217.0781,430.9688 C3217.0781,430.5313 3217.0625,430.4063 3216.9688,430.25 C3216.8125,429.9844 3216.5313,429.8438 3216.2344,429.8438 C3215.9375,429.8438 3215.7344,429.9375 3215.5156,430.25 L3215.3438,430.1719 Z " fill="#000000"/><text fill="#000000" font-family="sans-serif" font-size="12" lengthAdjust="spacing" textLength="60" x="3233" y="438.6543">Operation</text><line style="stroke:#A80036;stroke-width:1.5;" x1="3172" x2="3322" y1="450.5" y2="450.5"/><polygon fill="none" points="3182,456.5,3186,460.5,3182,464.5,3178,460.5" style="stroke:#B38D22;stroke-width:1.0;"/><text fill="#000000" font-family="sans-serif" font-size="11" lengthAdjust="spacing" textLength="126" x="3191" y="464.7104">Integer numOperation</text><polygon fill="none" points="3182,469.3047,3186,473.3047,3182,477.3047,3178,473.3047" style="stroke:#B38D22;stroke-width:1.0;"/><text fill="#000000" font-family="sans-serif" font-size="11" lengthAdjust="spacing" textLength="114" x="3191" y="477.5151">Date dateOperation</text><polygon fill="none" points="3182,482.1094,3186,486.1094,3182,490.1094,3178,486.1094" style="stroke:#B38D22;stroke-width:1.0;"/><text fill="#000000" font-family="sans-serif" font-size="11" lengthAdjust="spacing" textLength="72" x="3191" y="490.3198">String libelle</text><polygon fill="none" points="3182,494.9141,3186,498.9141,3182,502.9141,3178,498.9141" style="stroke:#B38D22;stroke-width:1.0;"/><text fill="#000000" font-family="sans-serif" font-size="11" lengthAdjust="spacing" textLength="92" x="3191" y="503.1245">Double montant</text><line style="stroke:#A80036;stroke-width:1.5;" x1="3172" x2="3322" y1="509.7188" y2="509.7188"/><!--MD5=[37114a9fe47fafd9a3992b69839c1e0b]
class CarteBancaire--><rect codeLine="28" fill="#FEFECE" filter="url(#f1i4flobrv8rqd)" height="99.2188" id="CarteBancaire" style="stroke:#A80036;stroke-width:1.5;" width="140" x="3342" y="578.5"/><ellipse cx="3367.8" cy="594.5" fill="#ADD1B2" rx="11" ry="11" style="stroke:#A80036;stroke-width:1.0;"/><path d="M3370.1438,590.1719 C3369.2063,589.7344 3368.6125,589.5938 3367.7375,589.5938 C3365.1125,589.5938 3363.1125,591.6719 3363.1125,594.3906 L3363.1125,595.5156 C3363.1125,598.0938 3365.2219,599.9844 3368.1125,599.9844 C3369.3313,599.9844 3370.4875,599.6875 3371.2375,599.1406 C3371.8156,598.7344 3372.1438,598.2813 3372.1438,597.8906 C3372.1438,597.4375 3371.7531,597.0469 3371.2844,597.0469 C3371.0656,597.0469 3370.8625,597.125 3370.675,597.3125 C3370.2219,597.7969 3370.2219,597.7969 3370.0344,597.8906 C3369.6125,598.1563 3368.925,598.2813 3368.1594,598.2813 C3366.1125,598.2813 3364.8156,597.1875 3364.8156,595.4844 L3364.8156,594.3906 C3364.8156,592.6094 3366.0656,591.2969 3367.8,591.2969 C3368.3781,591.2969 3368.9875,591.4531 3369.4563,591.7031 C3369.9406,591.9844 3370.1125,592.2031 3370.2063,592.6094 C3370.2688,593.0156 3370.3,593.1406 3370.4406,593.2656 C3370.5813,593.4063 3370.8156,593.5156 3371.0344,593.5156 C3371.3,593.5156 3371.5656,593.375 3371.7375,593.1563 C3371.8469,593 3371.8781,592.8125 3371.8781,592.3906 L3371.8781,590.9688 C3371.8781,590.5313 3371.8625,590.4063 3371.7688,590.25 C3371.6125,589.9844 3371.3313,589.8438 3371.0344,589.8438 C3370.7375,589.8438 3370.5344,589.9375 3370.3156,590.25 L3370.1438,590.1719 Z " fill="#000000"/><text fill="#000000" font-family="sans-serif" font-size="12" lengthAdjust="spacing" textLength="84" x="3384.2" y="598.6543">CarteBancaire</text><line style="stroke:#A80036;stroke-width:1.5;" x1="3343" x2="3481" y1="610.5" y2="610.5"/><rect fill="none" height="6" style="stroke:#C82930;stroke-width:1.0;" width="6" x="3350" y="618.5"/><text fill="#000000" font-family="sans-serif" font-size="11" lengthAdjust="spacing" textLength="81" x="3362" y="624.7104">String codePin</text><polygon fill="none" points="3353,629.3047,3357,633.3047,3353,637.3047,3349,633.3047" style="stroke:#B38D22;stroke-width:1.0;"/><text fill="#000000" font-family="sans-serif" font-size="11" lengthAdjust="spacing" textLength="93" x="3362" y="637.5151">String numCarte</text><polygon fill="none" points="3353,642.1094,3357,646.1094,3353,650.1094,3349,646.1094" style="stroke:#B38D22;stroke-width:1.0;"/><text fill="#000000" font-family="sans-serif" font-size="11" lengthAdjust="spacing" textLength="114" x="3362" y="650.3198">Date dateExpiration</text><line style="stroke:#A80036;stroke-width:1.5;" x1="3343" x2="3481" y1="656.9141" y2="656.9141"/><ellipse cx="3353" cy="667.9141" fill="#84BE84" rx="3" ry="3" style="stroke:#038048;stroke-width:1.0;"/><text fill="#000000" font-family="sans-serif" font-size="11" lengthAdjust="spacing" textLength="82" x="3362" y="671.1245">verifierPin(pin)</text><!--MD5=[bc9e32362f6cc1a3062284e4c5c5c1c8]
class BanqueServiceInterface--><rect codeLine="37" fill="#FEFECE" filter="url(#f1i4flobrv8rqd)" height="124.8281" id="BanqueServiceInterface" style="stroke:#A80036;stroke-width:1.5;" width="872" x="391" y="209.5"/><ellipse cx="750.75" cy="225.5" fill="#B4A7E5" rx="11" ry="11" style="stroke:#A80036;stroke-width:1.0;"/><path d="M751.7031,222.2813 L753.4219,222.2813 C753.8125,222.2813 754,222.25 754.125,222.1719 C754.3906,222.0156 754.5313,221.7344 754.5313,221.4375 C754.5313,221.1719 754.4219,220.9063 754.1875,220.7344 C754.0156,220.625 753.875,220.5938 753.4219,220.5938 L748.2813,220.5938 C747.8438,220.5938 747.7188,220.6094 747.5625,220.7031 C747.3125,220.8594 747.1563,221.1563 747.1563,221.4375 C747.1563,221.7188 747.2969,221.9688 747.5156,222.1406 C747.6719,222.25 747.8594,222.2813 748.2813,222.2813 L750,222.2813 L750,228.7969 L748.2813,228.7969 C747.8438,228.7969 747.7188,228.8125 747.5625,228.9219 C747.3125,229.0781 747.1563,229.3594 747.1563,229.6563 C747.1563,229.9063 747.2969,230.1719 747.5156,230.3281 C747.6719,230.4531 747.875,230.5 748.2813,230.5 L753.4219,230.5 C754.1719,230.5 754.5313,230.2188 754.5313,229.6563 C754.5313,229.375 754.4219,229.125 754.1875,228.9531 C754.0156,228.8281 753.875,228.7969 753.4219,228.7969 L751.7031,228.7969 L751.7031,222.2813 Z " fill="#000000"/><text fill="#000000" font-family="sans-serif" font-size="12" font-style="italic" lengthAdjust="spacing" textLength="144" x="771.25" y="229.6543">BanqueServiceInterface</text><line style="stroke:#A80036;stroke-width:1.5;" x1="392" x2="1262" y1="241.5" y2="241.5"/><line style="stroke:#A80036;stroke-width:1.5;" x1="392" x2="1262" y1="249.5" y2="249.5"/><ellipse cx="402" cy="260.5" fill="#84BE84" rx="3" ry="3" style="stroke:#038048;stroke-width:1.0;"/><text fill="#000000" font-family="sans-serif" font-size="11" lengthAdjust="spacing" textLength="763" x="411" y="263.7104">CompteCourant creerCompteCourant(Banque banque, Personne titulaire, String guichet, Double soldeInitial) throws CompteException</text><ellipse cx="402" cy="273.3047" fill="#84BE84" rx="3" ry="3" style="stroke:#038048;stroke-width:1.0;"/><text fill="#000000" font-family="sans-serif" font-size="11" lengthAdjust="spacing" textLength="650" x="411" y="276.5151">CompteCourant creerCompteCourant(Banque banque, Personne titulaire, String guichet) throws CompteException</text><ellipse cx="402" cy="286.1094" fill="#84BE84" rx="3" ry="3" style="stroke:#038048;stroke-width:1.0;"/><text fill="#000000" font-family="sans-serif" font-size="11" lengthAdjust="spacing" textLength="846" x="411" y="289.3198">CompteEpargne creerCompteEpargne(Banque banque, Personne titulaire, String guichet, Double soldeInitial, Double taux) throws CompteException</text><ellipse cx="402" cy="298.9141" fill="#84BE84" rx="3" ry="3" style="stroke:#038048;stroke-width:1.0;"/><text fill="#000000" font-family="sans-serif" font-size="11" lengthAdjust="spacing" textLength="641" x="411" y="302.1245">CarteBancaire creerCarte(Banque banque, Personne titulaire, CompteCourant compte) throws CompteException</text><ellipse cx="402" cy="311.7188" fill="#84BE84" rx="3" ry="3" style="stroke:#038048;stroke-width:1.0;"/><text fill="#000000" font-family="sans-serif" font-size="11" lengthAdjust="spacing" textLength="276" x="411" y="314.9292">void afficherSyntheseComptes(Banque banque)</text><ellipse cx="402" cy="324.5234" fill="#84BE84" rx="3" ry="3" style="stroke:#038048;stroke-width:1.0;"/><text fill="#000000" font-family="sans-serif" font-size="11" lengthAdjust="spacing" textLength="262" x="411" y="327.7339">void afficherSyntheseCartes(Banque banque)</text><!--MD5=[24fcc4d1ddeb7a928e6b4a1efe1b4b78]
class CompteBancaireServiceInterface--><rect codeLine="45" fill="#FEFECE" filter="url(#f1i4flobrv8rqd)" height="86.4141" id="CompteBancaireServiceInterface" style="stroke:#A80036;stroke-width:1.5;" width="646" x="1298" y="229"/><ellipse cx="1518.25" cy="245" fill="#B4A7E5" rx="11" ry="11" style="stroke:#A80036;stroke-width:1.0;"/><path d="M1519.2031,241.7813 L1520.9219,241.7813 C1521.3125,241.7813 1521.5,241.75 1521.625,241.6719 C1521.8906,241.5156 1522.0313,241.2344 1522.0313,240.9375 C1522.0313,240.6719 1521.9219,240.4063 1521.6875,240.2344 C1521.5156,240.125 1521.375,240.0938 1520.9219,240.0938 L1515.7813,240.0938 C1515.3438,240.0938 1515.2188,240.1094 1515.0625,240.2031 C1514.8125,240.3594 1514.6563,240.6563 1514.6563,240.9375 C1514.6563,241.2188 1514.7969,241.4688 1515.0156,241.6406 C1515.1719,241.75 1515.3594,241.7813 1515.7813,241.7813 L1517.5,241.7813 L1517.5,248.2969 L1515.7813,248.2969 C1515.3438,248.2969 1515.2188,248.3125 1515.0625,248.4219 C1514.8125,248.5781 1514.6563,248.8594 1514.6563,249.1563 C1514.6563,249.4063 1514.7969,249.6719 1515.0156,249.8281 C1515.1719,249.9531 1515.375,250 1515.7813,250 L1520.9219,250 C1521.6719,250 1522.0313,249.7188 1522.0313,249.1563 C1522.0313,248.875 1521.9219,248.625 1521.6875,248.4531 C1521.5156,248.3281 1521.375,248.2969 1520.9219,248.2969 L1519.2031,248.2969 L1519.2031,241.7813 Z " fill="#000000"/><text fill="#000000" font-family="sans-serif" font-size="12" font-style="italic" lengthAdjust="spacing" textLength="197" x="1538.75" y="249.1543">CompteBancaireServiceInterface</text><line style="stroke:#A80036;stroke-width:1.5;" x1="1299" x2="1943" y1="261" y2="261"/><line style="stroke:#A80036;stroke-width:1.5;" x1="1299" x2="1943" y1="269" y2="269"/><ellipse cx="1309" cy="280" fill="#84BE84" rx="3" ry="3" style="stroke:#038048;stroke-width:1.0;"/><text fill="#000000" font-family="sans-serif" font-size="11" lengthAdjust="spacing" textLength="620" x="1318" y="283.2104">Operation creerOperation(CompteBancaire compte, String libelle, Double montant) throws CompteException</text><ellipse cx="1309" cy="292.8047" fill="#84BE84" rx="3" ry="3" style="stroke:#038048;stroke-width:1.0;"/><text fill="#000000" font-family="sans-serif" font-size="11" lengthAdjust="spacing" textLength="338" x="1318" y="296.0151">void afficherSyntheseOperations(CompteBancaire compte)</text><ellipse cx="1309" cy="305.6094" fill="#84BE84" rx="3" ry="3" style="stroke:#038048;stroke-width:1.0;"/><text fill="#000000" font-family="sans-serif" font-size="11" lengthAdjust="spacing" textLength="272" x="1318" y="308.8198">double calculerInteret(CompteEpargne compte)</text><!--MD5=[41064d2270a74b4d0af96cb051208683]
class PersonneServiceInterface--><rect codeLine="50" fill="#FEFECE" filter="url(#f1i4flobrv8rqd)" height="60.8047" id="PersonneServiceInterface" style="stroke:#A80036;stroke-width:1.5;" width="324" x="32" y="241.5"/><ellipse cx="113.25" cy="257.5" fill="#B4A7E5" rx="11" ry="11" style="stroke:#A80036;stroke-width:1.0;"/><path d="M114.2031,254.2813 L115.9219,254.2813 C116.3125,254.2813 116.5,254.25 116.625,254.1719 C116.8906,254.0156 117.0313,253.7344 117.0313,253.4375 C117.0313,253.1719 116.9219,252.9063 116.6875,252.7344 C116.5156,252.625 116.375,252.5938 115.9219,252.5938 L110.7813,252.5938 C110.3438,252.5938 110.2188,252.6094 110.0625,252.7031 C109.8125,252.8594 109.6563,253.1563 109.6563,253.4375 C109.6563,253.7188 109.7969,253.9688 110.0156,254.1406 C110.1719,254.25 110.3594,254.2813 110.7813,254.2813 L112.5,254.2813 L112.5,260.7969 L110.7813,260.7969 C110.3438,260.7969 110.2188,260.8125 110.0625,260.9219 C109.8125,261.0781 109.6563,261.3594 109.6563,261.6563 C109.6563,261.9063 109.7969,262.1719 110.0156,262.3281 C110.1719,262.4531 110.375,262.5 110.7813,262.5 L115.9219,262.5 C116.6719,262.5 117.0313,262.2188 117.0313,261.6563 C117.0313,261.375 116.9219,261.125 116.6875,260.9531 C116.5156,260.8281 116.375,260.7969 115.9219,260.7969 L114.2031,260.7969 L114.2031,254.2813 Z " fill="#000000"/><text fill="#000000" font-family="sans-serif" font-size="12" font-style="italic" lengthAdjust="spacing" textLength="153" x="133.75" y="261.6543">PersonneServiceInterface</text><line style="stroke:#A80036;stroke-width:1.5;" x1="33" x2="355" y1="273.5" y2="273.5"/><line style="stroke:#A80036;stroke-width:1.5;" x1="33" x2="355" y1="281.5" y2="281.5"/><ellipse cx="43" cy="292.5" fill="#84BE84" rx="3" ry="3" style="stroke:#038048;stroke-width:1.0;"/><text fill="#000000" font-family="sans-serif" font-size="11" lengthAdjust="spacing" textLength="298" x="52" y="295.7104">Personne creerPersonne(String nom, String prenom)</text><!--MD5=[e893644d722d3755b686287f9005b5bf]
class BanqueService--><rect codeLine="56" fill="#FEFECE" filter="url(#f1i4flobrv8rqd)" height="66.7422" id="BanqueService" style="stroke:#A80036;stroke-width:1.5;" width="431" x="927.5" y="434.5"/><ellipse cx="1093.25" cy="453.4688" fill="#ADD1B2" rx="11" ry="11" style="stroke:#A80036;stroke-width:1.0;"/><path d="M1095.5938,449.1406 C1094.6563,448.7031 1094.0625,448.5625 1093.1875,448.5625 C1090.5625,448.5625 1088.5625,450.6406 1088.5625,453.3594 L1088.5625,454.4844 C1088.5625,457.0625 1090.6719,458.9531 1093.5625,458.9531 C1094.7813,458.9531 1095.9375,458.6563 1096.6875,458.1094 C1097.2656,457.7031 1097.5938,457.25 1097.5938,456.8594 C1097.5938,456.4063 1097.2031,456.0156 1096.7344,456.0156 C1096.5156,456.0156 1096.3125,456.0938 1096.125,456.2813 C1095.6719,456.7656 1095.6719,456.7656 1095.4844,456.8594 C1095.0625,457.125 1094.375,457.25 1093.6094,457.25 C1091.5625,457.25 1090.2656,456.1563 1090.2656,454.4531 L1090.2656,453.3594 C1090.2656,451.5781 1091.5156,450.2656 1093.25,450.2656 C1093.8281,450.2656 1094.4375,450.4219 1094.9063,450.6719 C1095.3906,450.9531 1095.5625,451.1719 1095.6563,451.5781 C1095.7188,451.9844 1095.75,452.1094 1095.8906,452.2344 C1096.0313,452.375 1096.2656,452.4844 1096.4844,452.4844 C1096.75,452.4844 1097.0156,452.3438 1097.1875,452.125 C1097.2969,451.9688 1097.3281,451.7813 1097.3281,451.3594 L1097.3281,449.9375 C1097.3281,449.5 1097.3125,449.375 1097.2188,449.2188 C1097.0625,448.9531 1096.7813,448.8125 1096.4844,448.8125 C1096.1875,448.8125 1095.9844,448.9063 1095.7656,449.2188 L1095.5938,449.1406 Z " fill="#000000"/><text fill="#000000" font-family="sans-serif" font-size="12" font-style="italic" lengthAdjust="spacing" textLength="84" x="1117.25" y="450.6387">«Component»</text><text fill="#000000" font-family="sans-serif" font-size="12" lengthAdjust="spacing" textLength="91" x="1113.75" y="464.6074">BanqueService</text><line style="stroke:#A80036;stroke-width:1.5;" x1="928.5" x2="1357.5" y1="472.4375" y2="472.4375"/><line style="stroke:#A80036;stroke-width:1.5;" x1="928.5" x2="1357.5" y1="480.4375" y2="480.4375"/><ellipse cx="938.5" cy="491.4375" fill="#84BE84" rx="3" ry="3" style="stroke:#038048;stroke-width:1.0;"/><text fill="#000000" font-family="sans-serif" font-size="11" lengthAdjust="spacing" textLength="405" x="947.5" y="494.6479">CarteBancaire lierCarte(CarteBancaire carte, CompteBancaire compte)</text><!--MD5=[9facb06b77692c46f6b5e73581c642fb]
class CompteBancaireService--><rect codeLine="59" fill="#FEFECE" filter="url(#f1i4flobrv8rqd)" height="66.7422" id="CompteBancaireService" style="stroke:#A80036;stroke-width:1.5;" width="298" x="1394" y="434.5"/><ellipse cx="1466.25" cy="453.4688" fill="#ADD1B2" rx="11" ry="11" style="stroke:#A80036;stroke-width:1.0;"/><path d="M1468.5938,449.1406 C1467.6563,448.7031 1467.0625,448.5625 1466.1875,448.5625 C1463.5625,448.5625 1461.5625,450.6406 1461.5625,453.3594 L1461.5625,454.4844 C1461.5625,457.0625 1463.6719,458.9531 1466.5625,458.9531 C1467.7813,458.9531 1468.9375,458.6563 1469.6875,458.1094 C1470.2656,457.7031 1470.5938,457.25 1470.5938,456.8594 C1470.5938,456.4063 1470.2031,456.0156 1469.7344,456.0156 C1469.5156,456.0156 1469.3125,456.0938 1469.125,456.2813 C1468.6719,456.7656 1468.6719,456.7656 1468.4844,456.8594 C1468.0625,457.125 1467.375,457.25 1466.6094,457.25 C1464.5625,457.25 1463.2656,456.1563 1463.2656,454.4531 L1463.2656,453.3594 C1463.2656,451.5781 1464.5156,450.2656 1466.25,450.2656 C1466.8281,450.2656 1467.4375,450.4219 1467.9063,450.6719 C1468.3906,450.9531 1468.5625,451.1719 1468.6563,451.5781 C1468.7188,451.9844 1468.75,452.1094 1468.8906,452.2344 C1469.0313,452.375 1469.2656,452.4844 1469.4844,452.4844 C1469.75,452.4844 1470.0156,452.3438 1470.1875,452.125 C1470.2969,451.9688 1470.3281,451.7813 1470.3281,451.3594 L1470.3281,449.9375 C1470.3281,449.5 1470.3125,449.375 1470.2188,449.2188 C1470.0625,448.9531 1469.7813,448.8125 1469.4844,448.8125 C1469.1875,448.8125 1468.9844,448.9063 1468.7656,449.2188 L1468.5938,449.1406 Z " fill="#000000"/><text fill="#000000" font-family="sans-serif" font-size="12" font-style="italic" lengthAdjust="spacing" textLength="84" x="1517.25" y="450.6387">«Component»</text><text fill="#000000" font-family="sans-serif" font-size="12" lengthAdjust="spacing" textLength="145" x="1486.75" y="464.6074">CompteBancaireService</text><line style="stroke:#A80036;stroke-width:1.5;" x1="1395" x2="1691" y1="472.4375" y2="472.4375"/><line style="stroke:#A80036;stroke-width:1.5;" x1="1395" x2="1691" y1="480.4375" y2="480.4375"/><rect fill="#F24D5C" height="6" style="stroke:#C82930;stroke-width:1.0;" width="6" x="1402" y="488.4375"/><text fill="#000000" font-family="sans-serif" font-size="11" lengthAdjust="spacing" textLength="272" x="1414" y="494.6479">Double calculerSolde(CompteBancaire compte)</text><!--MD5=[83e44967395f84fbfc4949b3dc08b9d7]
class PersonneService--><rect codeLine="62" fill="#FEFECE" filter="url(#f1i4flobrv8rqd)" height="53.9375" id="PersonneService" style="stroke:#A80036;stroke-width:1.5;" width="134" x="758" y="441"/><ellipse cx="773" cy="459.9688" fill="#ADD1B2" rx="11" ry="11" style="stroke:#A80036;stroke-width:1.0;"/><path d="M775.3438,455.6406 C774.4063,455.2031 773.8125,455.0625 772.9375,455.0625 C770.3125,455.0625 768.3125,457.1406 768.3125,459.8594 L768.3125,460.9844 C768.3125,463.5625 770.4219,465.4531 773.3125,465.4531 C774.5313,465.4531 775.6875,465.1563 776.4375,464.6094 C777.0156,464.2031 777.3438,463.75 777.3438,463.3594 C777.3438,462.9063 776.9531,462.5156 776.4844,462.5156 C776.2656,462.5156 776.0625,462.5938 775.875,462.7813 C775.4219,463.2656 775.4219,463.2656 775.2344,463.3594 C774.8125,463.625 774.125,463.75 773.3594,463.75 C771.3125,463.75 770.0156,462.6563 770.0156,460.9531 L770.0156,459.8594 C770.0156,458.0781 771.2656,456.7656 773,456.7656 C773.5781,456.7656 774.1875,456.9219 774.6563,457.1719 C775.1406,457.4531 775.3125,457.6719 775.4063,458.0781 C775.4688,458.4844 775.5,458.6094 775.6406,458.7344 C775.7813,458.875 776.0156,458.9844 776.2344,458.9844 C776.5,458.9844 776.7656,458.8438 776.9375,458.625 C777.0469,458.4688 777.0781,458.2813 777.0781,457.8594 L777.0781,456.4375 C777.0781,456 777.0625,455.875 776.9688,455.7188 C776.8125,455.4531 776.5313,455.3125 776.2344,455.3125 C775.9375,455.3125 775.7344,455.4063 775.5156,455.7188 L775.3438,455.6406 Z " fill="#000000"/><text fill="#000000" font-family="sans-serif" font-size="12" font-style="italic" lengthAdjust="spacing" textLength="84" x="796" y="457.1387">«Component»</text><text fill="#000000" font-family="sans-serif" font-size="12" lengthAdjust="spacing" textLength="102" x="787" y="471.1074">PersonneService</text><line style="stroke:#A80036;stroke-width:1.5;" x1="759" x2="891" y1="478.9375" y2="478.9375"/><line style="stroke:#A80036;stroke-width:1.5;" x1="759" x2="891" y1="486.9375" y2="486.9375"/><!--MD5=[6a7acfa83f04a4efd9734e0732db27f0]
class SystemeBancaire--><rect codeLine="64" fill="#FEFECE" filter="url(#f1i4flobrv8rqd)" height="53.9375" id="SystemeBancaire" style="stroke:#A80036;stroke-width:1.5;" width="137" x="1727.5" y="441"/><ellipse cx="1742.5" cy="459.9688" fill="#ADD1B2" rx="11" ry="11" style="stroke:#A80036;stroke-width:1.0;"/><path d="M1744.8438,455.6406 C1743.9063,455.2031 1743.3125,455.0625 1742.4375,455.0625 C1739.8125,455.0625 1737.8125,457.1406 1737.8125,459.8594 L1737.8125,460.9844 C1737.8125,463.5625 1739.9219,465.4531 1742.8125,465.4531 C1744.0313,465.4531 1745.1875,465.1563 1745.9375,464.6094 C1746.5156,464.2031 1746.8438,463.75 1746.8438,463.3594 C1746.8438,462.9063 1746.4531,462.5156 1745.9844,462.5156 C1745.7656,462.5156 1745.5625,462.5938 1745.375,462.7813 C1744.9219,463.2656 1744.9219,463.2656 1744.7344,463.3594 C1744.3125,463.625 1743.625,463.75 1742.8594,463.75 C1740.8125,463.75 1739.5156,462.6563 1739.5156,460.9531 L1739.5156,459.8594 C1739.5156,458.0781 1740.7656,456.7656 1742.5,456.7656 C1743.0781,456.7656 1743.6875,456.9219 1744.1563,457.1719 C1744.6406,457.4531 1744.8125,457.6719 1744.9063,458.0781 C1744.9688,458.4844 1745,458.6094 1745.1406,458.7344 C1745.2813,458.875 1745.5156,458.9844 1745.7344,458.9844 C1746,458.9844 1746.2656,458.8438 1746.4375,458.625 C1746.5469,458.4688 1746.5781,458.2813 1746.5781,457.8594 L1746.5781,456.4375 C1746.5781,456 1746.5625,455.875 1746.4688,455.7188 C1746.3125,455.4531 1746.0313,455.3125 1745.7344,455.3125 C1745.4375,455.3125 1745.2344,455.4063 1745.0156,455.7188 L1744.8438,455.6406 Z " fill="#000000"/><text fill="#000000" font-family="sans-serif" font-size="12" font-style="italic" lengthAdjust="spacing" textLength="84" x="1767" y="457.1387">«Component»</text><text fill="#000000" font-family="sans-serif" font-size="12" lengthAdjust="spacing" textLength="105" x="1756.5" y="471.1074">SystemeBancaire</text><line style="stroke:#A80036;stroke-width:1.5;" x1="1728.5" x2="1863.5" y1="478.9375" y2="478.9375"/><line style="stroke:#A80036;stroke-width:1.5;" x1="1728.5" x2="1863.5" y1="486.9375" y2="486.9375"/><!--MD5=[b58ac4b5d8645ec250b50faf6b2cdd50]
class SystemeBancaireInterface--><rect codeLine="69" fill="#FEFECE" filter="url(#f1i4flobrv8rqd)" height="86.4141" id="SystemeBancaireInterface" style="stroke:#A80036;stroke-width:1.5;" width="716" x="1979" y="229"/><ellipse cx="2253.75" cy="245" fill="#B4A7E5" rx="11" ry="11" style="stroke:#A80036;stroke-width:1.0;"/><path d="M2254.7031,241.7813 L2256.4219,241.7813 C2256.8125,241.7813 2257,241.75 2257.125,241.6719 C2257.3906,241.5156 2257.5313,241.2344 2257.5313,240.9375 C2257.5313,240.6719 2257.4219,240.4063 2257.1875,240.2344 C2257.0156,240.125 2256.875,240.0938 2256.4219,240.0938 L2251.2813,240.0938 C2250.8438,240.0938 2250.7188,240.1094 2250.5625,240.2031 C2250.3125,240.3594 2250.1563,240.6563 2250.1563,240.9375 C2250.1563,241.2188 2250.2969,241.4688 2250.5156,241.6406 C2250.6719,241.75 2250.8594,241.7813 2251.2813,241.7813 L2253,241.7813 L2253,248.2969 L2251.2813,248.2969 C2250.8438,248.2969 2250.7188,248.3125 2250.5625,248.4219 C2250.3125,248.5781 2250.1563,248.8594 2250.1563,249.1563 C2250.1563,249.4063 2250.2969,249.6719 2250.5156,249.8281 C2250.6719,249.9531 2250.875,250 2251.2813,250 L2256.4219,250 C2257.1719,250 2257.5313,249.7188 2257.5313,249.1563 C2257.5313,248.875 2257.4219,248.625 2257.1875,248.4531 C2257.0156,248.3281 2256.875,248.2969 2256.4219,248.2969 L2254.7031,248.2969 L2254.7031,241.7813 Z " fill="#000000"/><text fill="#000000" font-family="sans-serif" font-size="12" font-style="italic" lengthAdjust="spacing" textLength="158" x="2274.25" y="249.1543">SystemeBancaireInterface</text><line style="stroke:#A80036;stroke-width:1.5;" x1="1980" x2="2694" y1="261" y2="261"/><line style="stroke:#A80036;stroke-width:1.5;" x1="1980" x2="2694" y1="269" y2="269"/><ellipse cx="1990" cy="280" fill="#84BE84" rx="3" ry="3" style="stroke:#038048;stroke-width:1.0;"/><text fill="#000000" font-family="sans-serif" font-size="11" lengthAdjust="spacing" textLength="635" x="1999" y="283.2104">List&lt;String&gt; rechercherRIBCompteCarte(Banque banque, String numCarte) throws SystemeBancaireException;</text><ellipse cx="1990" cy="292.8047" fill="#84BE84" rx="3" ry="3" style="stroke:#038048;stroke-width:1.0;"/><text fill="#000000" font-family="sans-serif" font-size="11" lengthAdjust="spacing" textLength="630" x="1999" y="296.0151">boolean verifierCodePin(Banque banque, String numCarte, String codePin) throws SystemeBancaireException;</text><ellipse cx="1990" cy="305.6094" fill="#84BE84" rx="3" ry="3" style="stroke:#038048;stroke-width:1.0;"/><text fill="#000000" font-family="sans-serif" font-size="11" lengthAdjust="spacing" textLength="690" x="1999" y="308.8198">int creerOperation(Banque banque, String ribCompte, String libelle, Double montant) throws SystemeBancaireException;</text><!--MD5=[28ecbf2586a0130ccf3cb8905daf5a68]
class Gabier--><rect codeLine="75" fill="#FEFECE" filter="url(#f1i4flobrv8rqd)" height="79.5469" id="Gabier" style="stroke:#A80036;stroke-width:1.5;" width="631" x="2021.5" y="31.5"/><ellipse cx="2292.75" cy="50.4688" fill="#ADD1B2" rx="11" ry="11" style="stroke:#A80036;stroke-width:1.0;"/><path d="M2295.0938,46.1406 C2294.1563,45.7031 2293.5625,45.5625 2292.6875,45.5625 C2290.0625,45.5625 2288.0625,47.6406 2288.0625,50.3594 L2288.0625,51.4844 C2288.0625,54.0625 2290.1719,55.9531 2293.0625,55.9531 C2294.2813,55.9531 2295.4375,55.6563 2296.1875,55.1094 C2296.7656,54.7031 2297.0938,54.25 2297.0938,53.8594 C2297.0938,53.4063 2296.7031,53.0156 2296.2344,53.0156 C2296.0156,53.0156 2295.8125,53.0938 2295.625,53.2813 C2295.1719,53.7656 2295.1719,53.7656 2294.9844,53.8594 C2294.5625,54.125 2293.875,54.25 2293.1094,54.25 C2291.0625,54.25 2289.7656,53.1563 2289.7656,51.4531 L2289.7656,50.3594 C2289.7656,48.5781 2291.0156,47.2656 2292.75,47.2656 C2293.3281,47.2656 2293.9375,47.4219 2294.4063,47.6719 C2294.8906,47.9531 2295.0625,48.1719 2295.1563,48.5781 C2295.2188,48.9844 2295.25,49.1094 2295.3906,49.2344 C2295.5313,49.375 2295.7656,49.4844 2295.9844,49.4844 C2296.25,49.4844 2296.5156,49.3438 2296.6875,49.125 C2296.7969,48.9688 2296.8281,48.7813 2296.8281,48.3594 L2296.8281,46.9375 C2296.8281,46.5 2296.8125,46.375 2296.7188,46.2188 C2296.5625,45.9531 2296.2813,45.8125 2295.9844,45.8125 C2295.6875,45.8125 2295.4844,45.9063 2295.2656,46.2188 L2295.0938,46.1406 Z " fill="#000000"/><text fill="#000000" font-family="sans-serif" font-size="12" font-style="italic" lengthAdjust="spacing" textLength="84" x="2311.25" y="47.6387">«Component»</text><text fill="#000000" font-family="sans-serif" font-size="12" lengthAdjust="spacing" textLength="40" x="2333.25" y="61.6074">Gabier</text><line style="stroke:#A80036;stroke-width:1.5;" x1="2022.5" x2="2651.5" y1="69.4375" y2="69.4375"/><line style="stroke:#A80036;stroke-width:1.5;" x1="2022.5" x2="2651.5" y1="77.4375" y2="77.4375"/><ellipse cx="2032.5" cy="88.4375" fill="#84BE84" rx="3" ry="3" style="stroke:#038048;stroke-width:1.0;"/><text fill="#000000" font-family="sans-serif" font-size="11" lengthAdjust="spacing" textLength="565" x="2041.5" y="91.6479">void accessCompte(Banque banque, String numCarte, codePin) throws SystemeBancaireException</text><ellipse cx="2032.5" cy="101.2422" fill="#84BE84" rx="3" ry="3" style="stroke:#038048;stroke-width:1.0;"/><text fill="#000000" font-family="sans-serif" font-size="11" lengthAdjust="spacing" textLength="605" x="2041.5" y="104.4526">int retirerEspeces(Banque banque, String ribCompte, Double montant) throws SystemeBancaireException</text><!--MD5=[8db60afef7a3447bbe27c5ed187fdac2]
class Exception--><rect fill="#FEFECE" filter="url(#f1i4flobrv8rqd)" height="48" id="Exception" style="stroke:#A80036;stroke-width:1.5;" width="91" x="2883.5" y="47.5"/><ellipse cx="2898.5" cy="63.5" fill="#ADD1B2" rx="11" ry="11" style="stroke:#A80036;stroke-width:1.0;"/><path d="M2900.8438,59.1719 C2899.9063,58.7344 2899.3125,58.5938 2898.4375,58.5938 C2895.8125,58.5938 2893.8125,60.6719 2893.8125,63.3906 L2893.8125,64.5156 C2893.8125,67.0938 2895.9219,68.9844 2898.8125,68.9844 C2900.0313,68.9844 2901.1875,68.6875 2901.9375,68.1406 C2902.5156,67.7344 2902.8438,67.2813 2902.8438,66.8906 C2902.8438,66.4375 2902.4531,66.0469 2901.9844,66.0469 C2901.7656,66.0469 2901.5625,66.125 2901.375,66.3125 C2900.9219,66.7969 2900.9219,66.7969 2900.7344,66.8906 C2900.3125,67.1563 2899.625,67.2813 2898.8594,67.2813 C2896.8125,67.2813 2895.5156,66.1875 2895.5156,64.4844 L2895.5156,63.3906 C2895.5156,61.6094 2896.7656,60.2969 2898.5,60.2969 C2899.0781,60.2969 2899.6875,60.4531 2900.1563,60.7031 C2900.6406,60.9844 2900.8125,61.2031 2900.9063,61.6094 C2900.9688,62.0156 2901,62.1406 2901.1406,62.2656 C2901.2813,62.4063 2901.5156,62.5156 2901.7344,62.5156 C2902,62.5156 2902.2656,62.375 2902.4375,62.1563 C2902.5469,62 2902.5781,61.8125 2902.5781,61.3906 L2902.5781,59.9688 C2902.5781,59.5313 2902.5625,59.4063 2902.4688,59.25 C2902.3125,58.9844 2902.0313,58.8438 2901.7344,58.8438 C2901.4375,58.8438 2901.2344,58.9375 2901.0156,59.25 L2900.8438,59.1719 Z " fill="#000000"/><text fill="#000000" font-family="sans-serif" font-size="12" lengthAdjust="spacing" textLength="59" x="2912.5" y="67.6543">Exception</text><line style="stroke:#A80036;stroke-width:1.5;" x1="2884.5" x2="2973.5" y1="79.5" y2="79.5"/><line style="stroke:#A80036;stroke-width:1.5;" x1="2884.5" x2="2973.5" y1="87.5" y2="87.5"/><!--MD5=[af5dcf4821474fcc7c9ba4f408c3a7c1]
class CompteException--><rect fill="#FEFECE" filter="url(#f1i4flobrv8rqd)" height="48" id="CompteException" style="stroke:#A80036;stroke-width:1.5;" width="138" x="2961" y="248"/><ellipse cx="2976" cy="264" fill="#ADD1B2" rx="11" ry="11" style="stroke:#A80036;stroke-width:1.0;"/><path d="M2978.3438,259.6719 C2977.4063,259.2344 2976.8125,259.0938 2975.9375,259.0938 C2973.3125,259.0938 2971.3125,261.1719 2971.3125,263.8906 L2971.3125,265.0156 C2971.3125,267.5938 2973.4219,269.4844 2976.3125,269.4844 C2977.5313,269.4844 2978.6875,269.1875 2979.4375,268.6406 C2980.0156,268.2344 2980.3438,267.7813 2980.3438,267.3906 C2980.3438,266.9375 2979.9531,266.5469 2979.4844,266.5469 C2979.2656,266.5469 2979.0625,266.625 2978.875,266.8125 C2978.4219,267.2969 2978.4219,267.2969 2978.2344,267.3906 C2977.8125,267.6563 2977.125,267.7813 2976.3594,267.7813 C2974.3125,267.7813 2973.0156,266.6875 2973.0156,264.9844 L2973.0156,263.8906 C2973.0156,262.1094 2974.2656,260.7969 2976,260.7969 C2976.5781,260.7969 2977.1875,260.9531 2977.6563,261.2031 C2978.1406,261.4844 2978.3125,261.7031 2978.4063,262.1094 C2978.4688,262.5156 2978.5,262.6406 2978.6406,262.7656 C2978.7813,262.9063 2979.0156,263.0156 2979.2344,263.0156 C2979.5,263.0156 2979.7656,262.875 2979.9375,262.6563 C2980.0469,262.5 2980.0781,262.3125 2980.0781,261.8906 L2980.0781,260.4688 C2980.0781,260.0313 2980.0625,259.9063 2979.9688,259.75 C2979.8125,259.4844 2979.5313,259.3438 2979.2344,259.3438 C2978.9375,259.3438 2978.7344,259.4375 2978.5156,259.75 L2978.3438,259.6719 Z " fill="#000000"/><text fill="#000000" font-family="sans-serif" font-size="12" lengthAdjust="spacing" textLength="106" x="2990" y="268.1543">CompteException</text><line style="stroke:#A80036;stroke-width:1.5;" x1="2962" x2="3098" y1="280" y2="280"/><line style="stroke:#A80036;stroke-width:1.5;" x1="2962" x2="3098" y1="288" y2="288"/><!--MD5=[10a040897a4e88d1f101a71b7e10b75d]
class SystemeBancaireException--><rect fill="#FEFECE" filter="url(#f1i4flobrv8rqd)" height="48" id="SystemeBancaireException" style="stroke:#A80036;stroke-width:1.5;" width="196" x="2730" y="248"/><ellipse cx="2745" cy="264" fill="#ADD1B2" rx="11" ry="11" style="stroke:#A80036;stroke-width:1.0;"/><path d="M2747.3438,259.6719 C2746.4063,259.2344 2745.8125,259.0938 2744.9375,259.0938 C2742.3125,259.0938 2740.3125,261.1719 2740.3125,263.8906 L2740.3125,265.0156 C2740.3125,267.5938 2742.4219,269.4844 2745.3125,269.4844 C2746.5313,269.4844 2747.6875,269.1875 2748.4375,268.6406 C2749.0156,268.2344 2749.3438,267.7813 2749.3438,267.3906 C2749.3438,266.9375 2748.9531,266.5469 2748.4844,266.5469 C2748.2656,266.5469 2748.0625,266.625 2747.875,266.8125 C2747.4219,267.2969 2747.4219,267.2969 2747.2344,267.3906 C2746.8125,267.6563 2746.125,267.7813 2745.3594,267.7813 C2743.3125,267.7813 2742.0156,266.6875 2742.0156,264.9844 L2742.0156,263.8906 C2742.0156,262.1094 2743.2656,260.7969 2745,260.7969 C2745.5781,260.7969 2746.1875,260.9531 2746.6563,261.2031 C2747.1406,261.4844 2747.3125,261.7031 2747.4063,262.1094 C2747.4688,262.5156 2747.5,262.6406 2747.6406,262.7656 C2747.7813,262.9063 2748.0156,263.0156 2748.2344,263.0156 C2748.5,263.0156 2748.7656,262.875 2748.9375,262.6563 C2749.0469,262.5 2749.0781,262.3125 2749.0781,261.8906 L2749.0781,260.4688 C2749.0781,260.0313 2749.0625,259.9063 2748.9688,259.75 C2748.8125,259.4844 2748.5313,259.3438 2748.2344,259.3438 C2747.9375,259.3438 2747.7344,259.4375 2747.5156,259.75 L2747.3438,259.6719 Z " fill="#000000"/><text fill="#000000" font-family="sans-serif" font-size="12" lengthAdjust="spacing" textLength="164" x="2759" y="268.1543">SystemeBancaireException</text><line style="stroke:#A80036;stroke-width:1.5;" x1="2731" x2="2925" y1="280" y2="280"/><line style="stroke:#A80036;stroke-width:1.5;" x1="2731" x2="2925" y1="288" y2="288"/><!--MD5=[b9c06e6873defb3d22d2b773683d3731]
reverse link CompteBancaire to Operation--><path codeLine="81" d="M3351.06,344.653 C3330.16,369.221 3307.28,396.122 3288.31,418.427 " fill="none" id="CompteBancaire-backto-Operation" style="stroke:#A80036;stroke-width:1.0;"/><polygon fill="#A80036" points="3359.57,334.649,3352.6354,336.6268,3351.794,343.7887,3358.7286,341.8108,3359.57,334.649" style="stroke:#A80036;stroke-width:1.0;"/><text fill="#000000" font-family="sans-serif" font-size="13" lengthAdjust="spacing" textLength="8" x="3345.398" y="354.4051">1</text><text fill="#000000" font-family="sans-serif" font-size="13" lengthAdjust="spacing" textLength="24" x="3268.4317" y="407.462">0..n</text><!--MD5=[504702f5f5b6c1764f71a7dec8218a76]
reverse link CompteBancaire to CompteCourant--><path codeLine="82" d="M3472.46,350.683 C3498.41,384.012 3526.82,420.511 3544.76,443.57 " fill="none" id="CompteBancaire-backto-CompteCourant" style="stroke:#A80036;stroke-width:1.0;"/><polygon fill="none" points="3466.75,354.732,3459.98,334.649,3477.79,346.132,3466.75,354.732" style="stroke:#A80036;stroke-width:1.0;"/><!--MD5=[699b12163b8b1844bde928fc1fa5558a]
reverse link CompteBancaire to CompteEpargne--><path codeLine="83" d="M3497.93,310.267 C3542.83,331.395 3597.69,359.898 3643,391.5 C3662.2,404.896 3681.57,422.495 3696.66,437.332 " fill="none" id="CompteBancaire-backto-CompteEpargne" style="stroke:#A80036;stroke-width:1.0;"/><polygon fill="none" points="3494.89,316.573,3479.68,301.821,3500.77,303.867,3494.89,316.573" style="stroke:#A80036;stroke-width:1.0;"/><!--MD5=[3c1922e6de411fbbd9deaedfac168a6c]
link CompteBancaire to Personne--><path codeLine="84" d="M3412,334.649 C3412,366.381 3412,403.959 3412,430.951 " fill="none" id="CompteBancaire-Personne" style="stroke:#A80036;stroke-width:1.0;"/><text fill="#000000" font-family="sans-serif" font-size="13" lengthAdjust="spacing" textLength="48" x="3413" y="379.5669">titulaire</text><text fill="#000000" font-family="sans-serif" font-size="13" lengthAdjust="spacing" textLength="24" x="3386.6875" y="354.4051">1..n</text><text fill="#000000" font-family="sans-serif" font-size="13" lengthAdjust="spacing" textLength="8" x="3403.2625" y="419.8524">1</text><!--MD5=[2df4529b034bfc729fc4c7007bce366c]
link Personne to CarteBancaire--><path codeLine="85" d="M3412,505.248 C3412,526.932 3412,554.765 3412,578.344 " fill="none" id="Personne-CarteBancaire" style="stroke:#A80036;stroke-width:1.0;"/><text fill="#000000" font-family="sans-serif" font-size="13" lengthAdjust="spacing" textLength="8" x="3403.3375" y="524.7696">1</text><text fill="#000000" font-family="sans-serif" font-size="13" lengthAdjust="spacing" textLength="24" x="3386.3125" y="567.3673">0..n</text><!--MD5=[23b43ce0b6ae91e793d5fedb97576cac]
link CompteCourant to CarteBancaire--><path codeLine="86" d="M3540.72,492.313 C3519.14,514.89 3485.77,549.81 3458.41,578.437 " fill="none" id="CompteCourant-CarteBancaire" style="stroke:#A80036;stroke-width:1.0;"/><text fill="#000000" font-family="sans-serif" font-size="13" lengthAdjust="spacing" textLength="24" x="3508.3642" y="512.1505">1..n</text><text fill="#000000" font-family="sans-serif" font-size="13" lengthAdjust="spacing" textLength="24" x="3439.2489" y="567.4734">0..n</text><!--MD5=[c2ac2e40217d72bfc8999a20f1445164]
link Gabier to SystemeBancaireInterface--><path codeLine="87" d="M2337,111.717 C2337,143.785 2337,189.245 2337,223.396 " fill="none" id="Gabier-to-SystemeBancaireInterface" style="stroke:#A80036;stroke-width:1.0;"/><polygon fill="#A80036" points="2337,228.776,2341,219.776,2337,223.776,2333,219.776,2337,228.776" style="stroke:#A80036;stroke-width:1.0;"/><text fill="#000000" font-family="sans-serif" font-size="13" lengthAdjust="spacing" textLength="111" x="2338" y="154.5669">systemeBancaire</text><!--MD5=[f231a93e0334036ffd8b4b7fa0dad3b4]
reverse link Banque to CompteBancaire--><path codeLine="88" d="M3328.87,113.837 C3343.49,141.484 3362.99,178.354 3379.43,209.433 " fill="none" id="Banque-backto-CompteBancaire" style="stroke:#A80036;stroke-width:1.0;"/><polygon fill="#A80036" points="3322.72,102.217,3321.9911,109.3912,3328.3331,112.8233,3329.062,105.6491,3322.72,102.217" style="stroke:#A80036;stroke-width:1.0;"/><text fill="#000000" font-family="sans-serif" font-size="13" lengthAdjust="spacing" textLength="8" x="3317.0274" y="121.8402">1</text><text fill="#000000" font-family="sans-serif" font-size="13" lengthAdjust="spacing" textLength="24" x="3350.2766" y="198.416">0..n</text><!--MD5=[79fb4fcab51037551af29f9581958aaf]
reverse link Banque to CarteBancaire--><path codeLine="89" d="M3271.36,112.265 C3201.45,195.266 3060.86,390.433 3153,525.5 C3195.05,587.14 3280.68,611.3478 3341.97,620.8544 " fill="none" id="Banque-backto-CarteBancaire" style="stroke:#A80036;stroke-width:1.0;"/><polygon fill="#A80036" points="3279.92,102.245,3272.9817,104.2098,3272.1268,111.37,3279.0651,109.4052,3279.92,102.245" style="stroke:#A80036;stroke-width:1.0;"/><text fill="#000000" font-family="sans-serif" font-size="13" lengthAdjust="spacing" textLength="8" x="3265.8011" y="121.8737">1</text><text fill="#000000" font-family="sans-serif" font-size="13" lengthAdjust="spacing" textLength="24" x="3309.8952" y="616.4749">0..n</text><!--MD5=[433f42558797ad2ee5713c64a855a313]
reverse link Exception to CompteException--><path codeLine="91" d="M2949.88,113.544 C2970.59,154.24 3001.57,215.127 3018.29,247.989 " fill="none" id="Exception-backto-CompteException" style="stroke:#A80036;stroke-width:1.0;"/><polygon fill="none" points="2943.61,116.659,2940.78,95.659,2956.09,110.31,2943.61,116.659" style="stroke:#A80036;stroke-width:1.0;"/><!--MD5=[e856433ee67f3e5cdfe22b8583eff292]
reverse link Exception to SystemeBancaireException--><path codeLine="92" d="M2908.12,113.544 C2887.41,154.24 2856.43,215.127 2839.71,247.989 " fill="none" id="Exception-backto-SystemeBancaireException" style="stroke:#A80036;stroke-width:1.0;"/><polygon fill="none" points="2901.91,110.31,2917.22,95.659,2914.39,116.659,2901.91,110.31" style="stroke:#A80036;stroke-width:1.0;"/><!--MD5=[92d745c253afee1e14e42361d12625df]
reverse link BanqueServiceInterface to BanqueService--><path codeLine="94" d="M944.768,345.301 C994.593,375.889 1050.14,409.988 1089.72,434.292 " fill="none" id="BanqueServiceInterface-backto-BanqueService" style="stroke:#A80036;stroke-width:1.0;"/><polygon fill="none" points="940.8,351.079,927.419,334.649,948.125,339.148,940.8,351.079" style="stroke:#A80036;stroke-width:1.0;"/><!--MD5=[398b7405004f386c88a434bd8d592a8e]
reverse link CompteBancaireServiceInterface to CompteBancaireService--><path codeLine="95" d="M1596.57,333.757 C1583.21,366.999 1567.17,406.874 1556.15,434.288 " fill="none" id="CompteBancaireServiceInterface-backto-CompteBancaireService" style="stroke:#A80036;stroke-width:1.0;"/><polygon fill="none" points="1590.12,331.04,1604.08,315.095,1603.11,336.263,1590.12,331.04" style="stroke:#A80036;stroke-width:1.0;"/><!--MD5=[20a7914c46e03f9d8af96ee11351fb8c]
reverse link PersonneServiceInterface to PersonneService--><path codeLine="96" d="M266.391,311.848 C298.406,327.902 336.91,345.709 373,358.5 C506.115,405.677 668.456,439.056 757.862,455.456 " fill="none" id="PersonneServiceInterface-backto-PersonneService" style="stroke:#A80036;stroke-width:1.0;"/><polygon fill="none" points="262.994,317.973,248.359,302.65,269.356,305.502,262.994,317.973" style="stroke:#A80036;stroke-width:1.0;"/><!--MD5=[be41be128124eb368f136dd9c50c39d8]
link BanqueService to CompteBancaireServiceInterface--><path codeLine="97" d="M1223.22,434.441 C1302.59,402.228 1424.62,352.701 1512.59,316.998 " fill="none" id="BanqueService-to-CompteBancaireServiceInterface" style="stroke:#A80036;stroke-width:1.0;"/><polygon fill="#A80036" points="1517.28,315.095,1507.4361,314.7831,1512.6489,316.98,1510.4521,322.1928,1517.28,315.095" style="stroke:#A80036;stroke-width:1.0;"/><text fill="#000000" font-family="sans-serif" font-size="13" lengthAdjust="spacing" textLength="37" x="1383" y="379.5669">utilise</text><!--MD5=[5a77b0313d5e540d10375124cc30b4b6]
reverse link SystemeBancaireInterface to SystemeBancaire--><path codeLine="98" d="M2200.76,321.855 C2093.73,360.237 1949.12,412.091 1864.87,442.303 " fill="none" id="SystemeBancaireInterface-backto-SystemeBancaire" style="stroke:#A80036;stroke-width:1.0;"/><polygon fill="none" points="2198.42,315.257,2219.61,315.095,2203.15,328.435,2198.42,315.257" style="stroke:#A80036;stroke-width:1.0;"/><!--MD5=[608b271660498972d5d29f1ca1d2b363]
link SystemeBancaire to CompteBancaireServiceInterface--><path codeLine="99" d="M1772.34,440.769 C1744.26,409.637 1696.93,357.171 1662.66,319.188 " fill="none" id="SystemeBancaire-to-CompteBancaireServiceInterface" style="stroke:#A80036;stroke-width:1.0;"/><polygon fill="#A80036" points="1658.97,315.095,1662.0255,324.4579,1662.318,318.8086,1667.9673,319.1011,1658.97,315.095" style="stroke:#A80036;stroke-width:1.0;"/><text fill="#000000" font-family="sans-serif" font-size="13" lengthAdjust="spacing" textLength="37" x="1720" y="379.5669">utilise</text><!--MD5=[3cb31bcae92961daa7cb7be7a8073d11]
@startuml
package entites {
    class Personne {
        #String nom
        #String prenom
    }
    class Banque {
        #String codeBanque
    }
    abstract class CompteBancaire {
        #String codeBanque
        #String codeGuichet
        #String numCompte
        #String cle
        #Double solde
        +String getRib()
    }
    class CompteCourant {
    }
    class CompteEpargne {
        #Double txInteret
    }
    class Operation {
        #Integer numOperation
        #Date dateOperation
        #String libelle
        #Double montant
    }
    class CarteBancaire {
        -String codePin
        #String numCarte
        #Date dateExpiration
        +verifierPin(pin)
    }
}

package services {
    interface BanqueServiceInterface {
        +CompteCourant creerCompteCourant(Banque banque, Personne titulaire, String guichet, Double soldeInitial) throws CompteException
        +CompteCourant creerCompteCourant(Banque banque, Personne titulaire, String guichet) throws CompteException
        +CompteEpargne creerCompteEpargne(Banque banque, Personne titulaire, String guichet, Double soldeInitial, Double taux) throws CompteException
        +CarteBancaire creerCarte(Banque banque, Personne titulaire, CompteCourant compte) throws CompteException
        +void afficherSyntheseComptes(Banque banque)
        +void afficherSyntheseCartes(Banque banque)
    }
    interface CompteBancaireServiceInterface {
        +Operation creerOperation(CompteBancaire compte, String libelle, Double montant) throws CompteException
        +void afficherSyntheseOperations(CompteBancaire compte)
        +double calculerInteret(CompteEpargne compte)
    }
    interface PersonneServiceInterface {
        +Personne creerPersonne(String nom, String prenom)
    }
}

package services.impl {
    class BanqueService <<Component>> {
        +CarteBancaire lierCarte(CarteBancaire carte, CompteBancaire compte)
    }
    class CompteBancaireService <<Component>> {
        -Double calculerSolde(CompteBancaire compte)
    }
    class PersonneService <<Component>> {
    }
    class SystemeBancaire <<Component>> {
    }
}


interface SystemeBancaireInterface {
    +List<String> rechercherRIBCompteCarte(Banque banque, String numCarte) throws SystemeBancaireException;
    +boolean verifierCodePin(Banque banque, String numCarte, String codePin) throws SystemeBancaireException;
    +int creerOperation(Banque banque, String ribCompte, String libelle, Double montant) throws SystemeBancaireException;
}

class Gabier <<Component>> {
    +void accessCompte(Banque banque, String numCarte, codePin) throws SystemeBancaireException
    +int retirerEspeces(Banque banque, String ribCompte, Double montant) throws SystemeBancaireException    
}


CompteBancaire "1" *- - "0..n" Operation
CompteBancaire <|- -  CompteCourant
CompteBancaire <|- -  CompteEpargne
CompteBancaire "1..n" - - "1" Personne : titulaire
Personne "1" - - "0..n" CarteBancaire
CompteCourant "1..n" - - "0..n" CarteBancaire
Gabier - -> SystemeBancaireInterface : systemeBancaire 
Banque "1" *- - "0..n" CompteBancaire
Banque "1" *- - "0..n" CarteBancaire

Exception <|- - CompteException
Exception <|- - SystemeBancaireException

BanqueServiceInterface <|- - BanqueService
CompteBancaireServiceInterface <|- - CompteBancaireService
PersonneServiceInterface <|- - PersonneService
BanqueService - -> CompteBancaireServiceInterface : "utilise"
SystemeBancaireInterface <|- - SystemeBancaire
SystemeBancaire - -> CompteBancaireServiceInterface : "utilise"
@enduml

PlantUML version 1.2021.13beta3(Unknown compile time)
(GPL source distribution)
Java Runtime: Java(TM) SE Runtime Environment
JVM: Java HotSpot(TM) 64-Bit Server VM
Default Encoding: UTF-8
Language: en
Country: US
--></g></svg>